<?xml version="1.0" encoding="UTF-8"?>
<!DOCTYPE svg PUBLIC "-//W3C//DTD SVG 1.1//EN" "http://www.w3.org/Graphics/SVG/1.1/DTD/svg11.dtd">
<!-- Creator: CorelDRAW 2020 (64 Bit) -->
<svg xmlns="http://www.w3.org/2000/svg" xml:space="preserve" width="300mm" height="300mm" version="1.1" style="shape-rendering:geometricPrecision; text-rendering:geometricPrecision; image-rendering:optimizeQuality; fill-rule:evenodd; clip-rule:evenodd"
viewBox="0 0 30000 30000"
 xmlns:xlink="http://www.w3.org/1999/xlink"
 xmlns:xodm="http://www.corel.com/coreldraw/odm/2003">
 <defs>
  <style type="text/css">
   <![CDATA[
    .fil0 {fill:#050005}
    .fil1 {fill:#4AC8F4}
   ]]>
  </style>
 </defs>
 <g id="Camada_x0020_1">
  <metadata id="CorelCorpID_0Corel-Layer"/>
  <g id="_2601928079200">
   <path class="fil0" d="M26137.56 12101.86c-728.69,239.91 -1642.42,713.24 -2445.29,1010.72 -6209.06,2300.62 -11124.01,2506.64 -17381.39,150.06 -891.61,-335.79 -1680.77,-710.74 -2488.11,-1035.54 339.63,-1223.27 196.01,-1846.65 -606.48,-2487.01 -814.7,-650.12 -1979.44,-461.31 -2611.58,125.54 -1554.97,1443.53 124.97,4309.55 2218.62,3288.78 523.23,-255.11 367.13,-173.66 1239.67,211.69 430.99,190.32 825.14,353.92 1274.59,532.94 2801.13,1115.73 5550.5,1782.81 8659.85,1964.86 -181.81,480.85 -4889.75,7360.16 -5642.26,8626.19 -2618.13,-580.46 -3560.71,2300.06 -1848.29,3538.27 961.89,695.49 2029.43,329.18 2659.95,-315.13 1136.66,-1161.47 55.29,-2571.73 -9.57,-2742.36l5684.76 -8551.56c794.95,1079.49 2065.37,3071.86 2872.31,4276.1 252.67,377.07 2739.59,4022.18 2872.8,4342.27 -1575.23,2280.53 1012.83,4233.42 2701.27,2967.78 1627.02,-1219.57 749.54,-4111.13 -1913.69,-3504.8 -155.1,-307.17 -478.58,-745.69 -708.37,-1077.98l-3613.05 -5406.16c-245.76,-367.09 -465.66,-682.35 -727.76,-1075.44 -123.93,-185.85 -233.14,-348.66 -348.23,-520.92 -114.23,-170.99 -304.35,-359.93 -316.07,-568.4 1955.29,-40.81 4366.53,-566.71 6078.73,-1091.99 1440.09,-441.8 2559.64,-849.72 3917.25,-1422.76 653.11,-275.66 929.83,-541.57 1250.88,-371.88 3066,1620.47 4346.95,-3022.84 1511.09,-3631.63 -969.94,-208.24 -1906.54,315.44 -2284.47,1211.05 -242.93,575.73 -142.81,997.32 2.84,1557.31z"/>
   <path class="fil0" d="M14443.56 4770.52c-2052.01,267.46 -3657.82,1950.03 -3446.72,4281.01 183.35,2024.53 2055.87,3708.65 4383,3440.93 1907.38,-219.46 3675.76,-2093.07 3373.81,-4316.05 -267.25,-1967.65 -2051.59,-3700.26 -4310.09,-3405.89z"/>
   <path class="fil1" d="M14401.19 5720.67c-1448.61,240.95 -2749.18,1585.99 -2464.53,3374.63 235.72,1481.14 1676.51,2794.54 3493.01,2448.96 1434.61,-272.93 2676.33,-1654.18 2370.56,-3447.57 -238.94,-1401.31 -1655.62,-2666.01 -3399.04,-2376.02z"/>
   <path class="fil0" d="M2679.99 8536.01l856.41 302.53c1255.12,-1945.33 2328.04,-3378.81 4393.82,-4675.39 6820.87,-4281.12 15240.98,-1474.38 18486.83,4756.63l844.93 -377.53c-248.54,-786.33 -1554.78,-2349.23 -2006.05,-2870.74 -2318.42,-2679.34 -6334.98,-4503.47 -10280.3,-4504.61 -3085.44,-0.89 -5471.21,909.83 -7608.8,2232.81 -1124.3,695.83 -1820.32,1429.22 -2653.75,2223.58 -335.83,320.09 -1907.53,2298.87 -2033.09,2912.72z"/>
   <path class="fil0" d="M27970.65 14152.09c-32.8,2425.44 -98.36,3913.31 -1002.15,5973.31 -537.17,1224.39 -1189.09,2299.3 -2007.98,3272.8 -240.64,286.05 -692.73,708.88 -845.25,971.39l383.74 496.59c7.5,10.13 53.42,73.14 59.37,80.54 65.58,81.87 41.75,59.09 104.48,116.32 456.95,-285.7 1371.02,-1477 1778.98,-2054.04 533.32,-754.35 942.72,-1518.75 1361.59,-2444.34 824.91,-1822.84 1264.99,-4199.42 1089.64,-6512.5l-922.42 99.93z"/>
   <path class="fil0" d="M5154.8 24974.92l593.34 -660.51c-402.37,-844.35 -3968.13,-3249.96 -3788.75,-10099.69l-921.37 -232.6c-110.76,3443.52 498.03,6239.07 2370.62,8926.15 253.43,363.67 545.52,775.51 806.96,1064.97 306.15,338.99 595.01,718.58 939.2,1001.68z"/>
   <path class="fil0" d="M9986.35 28046.12c541.89,540.89 3838.15,964.87 4855.68,966.49 1276.58,2.05 4113.4,-345.19 4982.4,-901.74 -58.5,-180.46 -301.3,-652.27 -439.43,-803.38 -667.27,138.46 -1306.39,406.79 -2077.5,541.76 -802.92,140.55 -1607.46,223.48 -2465.47,210.05 -2641.72,-41.32 -2776.36,-468.31 -4478.82,-808.66l-376.86 795.48z"/>
   <path class="fil1" d="M1627.31 10328.64c-1371.74,528.65 -571.31,2525.41 773.08,2004.19 1292.36,-501.06 581.24,-2526.12 -773.08,-2004.19z"/>
   <path class="fil1" d="M21844.72 25338.32c-549.14,136.94 -981.36,673.43 -797.77,1360.76 128.15,479.75 722.91,929.07 1379.05,716.89 1316.06,-425.54 738.4,-2406.73 -581.28,-2077.65z"/>
   <path class="fil1" d="M7410.71 25335.29c-1465.8,400.32 -807.22,2518.86 586.87,2083.44 476.89,-148.94 877.1,-686.97 708.2,-1326.23 -123.97,-469.24 -694.43,-921.25 -1295.07,-757.21z"/>
   <path class="fil1" d="M27752.5 10257c-1429.59,360.93 -853.37,2465.21 567.4,2077.74 1225.69,-334.27 836.03,-2432.05 -567.4,-2077.74z"/>
  </g>
 </g>
</svg>
