<?xml version="1.0" encoding="UTF-8"?>
<!DOCTYPE svg PUBLIC "-//W3C//DTD SVG 1.1//EN" "http://www.w3.org/Graphics/SVG/1.1/DTD/svg11.dtd">
<!-- Creator: CorelDRAW 2020 (64 Bit) -->
<svg xmlns="http://www.w3.org/2000/svg" xml:space="preserve" width="300mm" height="300mm" version="1.1" style="shape-rendering:geometricPrecision; text-rendering:geometricPrecision; image-rendering:optimizeQuality; fill-rule:evenodd; clip-rule:evenodd"
viewBox="0 0 30000 30000"
 xmlns:xlink="http://www.w3.org/1999/xlink"
 xmlns:xodm="http://www.corel.com/coreldraw/odm/2003">
 <defs>
  <style type="text/css">
   <![CDATA[
    .fil0 {fill:white}
   ]]>
  </style>
 </defs>
 <g id="Camada_x0020_1">
  <metadata id="CorelCorpID_0Corel-Layer"/>
  <g id="_1340543689632">
   <path class="fil0" d="M12658.49 29821.08l0 -10475.27 -3798.45 -5.9 -9.78 -4331.34c35.06,-30.17 -53.96,-33.92 223.31,-31.85l3565.36 0.05 -0.18 -3515.25c-2.55,-228.83 1.19,-162.42 31.24,-200.7 2.65,-1025.5 352.29,-2138.15 783.6,-2900.89 994.42,-1758.53 2861.69,-2492.41 4884.78,-2498.01 584.85,-1.62 1138.86,38.28 1698.53,88.85 275.09,24.86 1452.81,134.8 1634.76,213.16l9.54 3678.44c-575.35,63.56 -1680.96,-48.39 -2339.72,31.71 -746.46,90.75 -1231.64,369.28 -1557.89,805.83 -415.91,556.53 -436.82,1119.02 -436.82,1936.71 0,499.09 -24.02,2010.05 5.53,2384.94l4149.66 0 -661.29 4332.15 -3493.9 6.72 -1.33 10473.24c713.9,-54.86 2165.92,-474.82 2844.61,-733.35 2591.41,-987.13 4612.23,-2433.92 6318.32,-4452 1011.58,-1196.55 2002.12,-2813.4 2615.54,-4563.67 3445.19,-9830.22 -3730.6,-20055.29 -14124.87,-20056.62 -2219.29,-0.28 -4184.15,468.77 -5957.51,1228.55 -833.71,357.19 -1610.46,786.52 -2326.49,1263.97 -2095.44,1397.25 -3903.34,3343.56 -5077.37,5691.93 -1826.66,3653.79 -2198.52,7961.71 -759.96,11868.74 689.2,1871.84 1429.35,3074.89 2614.86,4564.31 60.14,75.57 137.44,168.65 194.97,231.46 44.52,48.61 66.95,63.61 109.41,116.83 38.16,47.82 56.69,76.52 101.77,123.28 600.94,623.15 779.64,783.86 1383.76,1328.61 596.76,538.13 1336.36,1030.59 2093.26,1496.69 1519.69,935.82 3508.37,1613.06 5282.75,1898.68z"/>
  </g>
 </g>
</svg>
