<?xml version="1.0" encoding="UTF-8"?>
<!DOCTYPE svg PUBLIC "-//W3C//DTD SVG 1.1//EN" "http://www.w3.org/Graphics/SVG/1.1/DTD/svg11.dtd">
<!-- Creator: CorelDRAW 2020 (64 Bit) -->
<svg xmlns="http://www.w3.org/2000/svg" xml:space="preserve" width="430mm" height="80mm" version="1.1" style="shape-rendering:geometricPrecision; text-rendering:geometricPrecision; image-rendering:optimizeQuality; fill-rule:evenodd; clip-rule:evenodd"
viewBox="0 0 43000 8000"
 xmlns:xlink="http://www.w3.org/1999/xlink"
 xmlns:xodm="http://www.corel.com/coreldraw/odm/2003">
 <defs>
  <style type="text/css">
   <![CDATA[
    .str0 {stroke:red;stroke-width:141.11;stroke-miterlimit:22.9256}
    .fil2 {fill:none;fill-rule:nonzero}
    .fil1 {fill:red;fill-rule:nonzero}
    .fil0 {fill:white;fill-rule:nonzero}
   ]]>
  </style>
 </defs>
 <g id="Camada_x0020_1">
  <metadata id="CorelCorpID_0Corel-Layer"/>
  <polygon class="fil0" points="878.32,1682.52 1400.44,1682.52 1400.44,6621.41 878.32,6621.41 "/>
  <path id="1" class="fil0" d="M6106.49 5302.02l-2751.66 0 -592.67 1319.39 -543.28 0 2257.78 -4938.89 515.06 0 2257.78 4938.89 -550.34 0 -592.67 -1319.39zm-190.5 -423.33l-1185.33 -2652.89 -1185.33 2652.89 2370.66 0z"/>
  <path id="2" class="fil1" d="M8011.5 6656.69c-103.48,0 -191.68,-37.63 -264.58,-112.89 -72.91,-75.26 -109.37,-166.98 -109.37,-275.17 0,-108.18 36.46,-198.73 109.37,-271.64 72.9,-72.9 161.1,-109.36 264.58,-109.36 103.48,0 192.85,36.46 268.11,109.36 75.26,72.91 112.89,163.46 112.89,271.64 0,108.19 -37.63,199.91 -112.89,275.17 -75.26,75.26 -164.63,112.89 -268.11,112.89z"/>
  <path id="3" class="fil2" d="M11567.5 6663.74c-489.18,0 -930.15,-108.18 -1322.91,-324.55 -392.76,-216.37 -700.86,-516.23 -924.28,-899.59 -223.43,-383.35 -335.14,-812.56 -335.14,-1287.64 0,-475.07 111.71,-904.28 335.14,-1287.64 223.42,-383.35 532.69,-683.21 927.8,-899.58 395.12,-216.37 837.26,-324.56 1326.45,-324.56 366.89,0 705.56,61.15 1016,183.45 310.44,122.3 573.85,301.04 790.22,536.22l-331.61 331.61c-385.7,-390.4 -872.54,-585.61 -1460.5,-585.61 -390.41,0 -745.54,89.37 -1065.39,268.11 -319.85,178.74 -570.32,423.34 -751.42,733.78 -181.09,310.45 -271.63,658.52 -271.63,1044.22 0,385.71 90.54,733.78 271.63,1044.23 181.1,310.44 431.57,555.03 751.42,733.78 319.85,178.74 674.98,268.11 1065.39,268.11 592.67,0 1079.5,-197.56 1460.5,-592.67l331.61 331.61c-216.37,235.19 -480.95,415.1 -793.75,539.75 -312.79,124.65 -652.64,186.97 -1019.53,186.97z"/>
  <polygon id="4" class="fil2" points="17988.07,6169.85 17988.07,6621.41 14495.56,6621.41 14495.56,1682.52 17882.23,1682.52 17882.23,2134.07 15017.68,2134.07 15017.68,3890.91 17571.79,3890.91 17571.79,4335.41 15017.68,4335.41 15017.68,6169.85 "/>
  <polygon id="5" class="fil2" points="23343.24,1682.52 23343.24,6621.41 22912.85,6621.41 19737.85,2613.85 19737.85,6621.41 19215.73,6621.41 19215.73,1682.52 19646.12,1682.52 22828.18,5690.08 22828.18,1682.52 "/>
  <polygon id="6" class="fil2" points="25911.46,2134.07 24175.79,2134.07 24175.79,1682.52 28169.24,1682.52 28169.24,2134.07 26433.57,2134.07 26433.57,6621.41 25911.46,6621.41 "/>
  <path id="7" class="fil2" d="M32374.35 6621.41l-1128.89 -1587.5c-127,14.11 -258.7,21.17 -395.11,21.17l-1326.44 0 0 1566.33 -522.12 0 0 -4938.89 1848.56 0c630.3,0 1124.19,150.52 1481.67,451.55 357.48,301.04 536.22,714.97 536.22,1241.78 0,385.71 -97.6,711.44 -292.8,977.2 -195.21,265.76 -473.9,457.43 -836.09,575.03l1206.5 1693.33 -571.5 0zm-1538.11 -2010.83c489.18,0 863.13,-108.19 1121.83,-324.56 258.71,-216.37 388.06,-519.76 388.06,-910.17 0,-399.81 -129.35,-706.73 -388.06,-920.75 -258.7,-214.02 -632.65,-321.03 -1121.83,-321.03l-1312.33 0 0 2476.51 1312.33 0z"/>
  <path id="8" class="fil2" d="M37200.35 5302.02l-2751.66 0 -592.67 1319.39 -543.28 0 2257.78 -4938.89 515.06 0 2257.78 4938.89 -550.34 0 -592.67 -1319.39zm-190.5 -423.33l-1185.33 -2652.89 -1185.33 2652.89 2370.66 0z"/>
  <polygon id="9" class="fil2" points="39161.8,1682.52 39683.92,1682.52 39683.92,6169.85 42449.69,6169.85 42449.69,6621.41 39161.8,6621.41 "/>
  <polygon id="10" class="fil2" points="878.32,1682.52 1400.44,1682.52 1400.44,6621.41 878.32,6621.41 "/>
  <path id="11" class="fil2" d="M6106.49 5302.02l-2751.66 0 -592.67 1319.39 -543.28 0 2257.78 -4938.89 515.06 0 2257.78 4938.89 -550.34 0 -592.67 -1319.39zm-190.5 -423.33l-1185.33 -2652.89 -1185.33 2652.89 2370.66 0z"/>
  <path id="12" class="fil2" d="M8011.5 6656.69c-103.48,0 -191.68,-37.63 -264.58,-112.89 -72.91,-75.26 -109.37,-166.98 -109.37,-275.17 0,-108.18 36.46,-198.73 109.37,-271.64 72.9,-72.9 161.1,-109.36 264.58,-109.36 103.48,0 192.85,36.46 268.11,109.36 75.26,72.91 112.89,163.46 112.89,271.64 0,108.19 -37.63,199.91 -112.89,275.17 -75.26,75.26 -164.63,112.89 -268.11,112.89z"/>
  <path id="13" class="fil2 str0" d="M11567.5 6663.74c-489.18,0 -930.15,-108.18 -1322.91,-324.55 -392.76,-216.37 -700.86,-516.23 -924.28,-899.59 -223.43,-383.35 -335.14,-812.56 -335.14,-1287.64 0,-475.07 111.71,-904.28 335.14,-1287.64 223.42,-383.35 532.69,-683.21 927.8,-899.58 395.12,-216.37 837.26,-324.56 1326.45,-324.56 366.89,0 705.56,61.15 1016,183.45 310.44,122.3 573.85,301.04 790.22,536.22l-331.61 331.61c-385.7,-390.4 -872.54,-585.61 -1460.5,-585.61 -390.41,0 -745.54,89.37 -1065.39,268.11 -319.85,178.74 -570.32,423.34 -751.42,733.78 -181.09,310.45 -271.63,658.52 -271.63,1044.22 0,385.71 90.54,733.78 271.63,1044.23 181.1,310.44 431.57,555.03 751.42,733.78 319.85,178.74 674.98,268.11 1065.39,268.11 592.67,0 1079.5,-197.56 1460.5,-592.67l331.61 331.61c-216.37,235.19 -480.95,415.1 -793.75,539.75 -312.79,124.65 -652.64,186.97 -1019.53,186.97z"/>
  <polygon id="14" class="fil2 str0" points="17988.07,6169.85 17988.07,6621.41 14495.56,6621.41 14495.56,1682.52 17882.23,1682.52 17882.23,2134.07 15017.68,2134.07 15017.68,3890.91 17571.79,3890.91 17571.79,4335.41 15017.68,4335.41 15017.68,6169.85 "/>
  <polygon id="15" class="fil2 str0" points="23343.24,1682.52 23343.24,6621.41 22912.85,6621.41 19737.85,2613.85 19737.85,6621.41 19215.73,6621.41 19215.73,1682.52 19646.12,1682.52 22828.18,5690.08 22828.18,1682.52 "/>
  <polygon id="16" class="fil2 str0" points="25911.46,2134.07 24175.79,2134.07 24175.79,1682.52 28169.24,1682.52 28169.24,2134.07 26433.57,2134.07 26433.57,6621.41 25911.46,6621.41 "/>
  <path id="17" class="fil2 str0" d="M32374.35 6621.41l-1128.89 -1587.5c-127,14.11 -258.7,21.17 -395.11,21.17l-1326.44 0 0 1566.33 -522.12 0 0 -4938.89 1848.56 0c630.3,0 1124.19,150.52 1481.67,451.55 357.48,301.04 536.22,714.97 536.22,1241.78 0,385.71 -97.6,711.44 -292.8,977.2 -195.21,265.76 -473.9,457.43 -836.09,575.03l1206.5 1693.33 -571.5 0zm-1538.11 -2010.83c489.18,0 863.13,-108.19 1121.83,-324.56 258.71,-216.37 388.06,-519.76 388.06,-910.17 0,-399.81 -129.35,-706.73 -388.06,-920.75 -258.7,-214.02 -632.65,-321.03 -1121.83,-321.03l-1312.33 0 0 2476.51 1312.33 0z"/>
  <path id="18" class="fil2 str0" d="M37200.35 5302.02l-2751.66 0 -592.67 1319.39 -543.28 0 2257.78 -4938.89 515.06 0 2257.78 4938.89 -550.34 0 -592.67 -1319.39zm-190.5 -423.33l-1185.33 -2652.89 -1185.33 2652.89 2370.66 0z"/>
  <polygon id="19" class="fil2 str0" points="39161.8,1682.52 39683.92,1682.52 39683.92,6169.85 42449.69,6169.85 42449.69,6621.41 39161.8,6621.41 "/>
 </g>
</svg>
