<?xml version="1.0" encoding="UTF-8"?>
<!DOCTYPE svg PUBLIC "-//W3C//DTD SVG 1.1//EN" "http://www.w3.org/Graphics/SVG/1.1/DTD/svg11.dtd">
<!-- Creator: CorelDRAW 2020 (64 Bit) -->
<svg xmlns="http://www.w3.org/2000/svg" xml:space="preserve" width="500mm" height="370mm" version="1.1" style="shape-rendering:geometricPrecision; text-rendering:geometricPrecision; image-rendering:optimizeQuality; fill-rule:evenodd; clip-rule:evenodd"
viewBox="0 0 50000 37000"
 xmlns:xlink="http://www.w3.org/1999/xlink"
 xmlns:xodm="http://www.corel.com/coreldraw/odm/2003">
 <defs>
  <style type="text/css">
   <![CDATA[
    .fil0 {fill:url(#id0)}
   ]]>
  </style>
  <radialGradient id="id0" gradientUnits="userSpaceOnUse" gradientTransform="matrix(1.91932 1.14529 1.62052 -0.924685 -12587 3858)" cx="4957.62" cy="4954.74" r="22592.29" fx="4957.62" fy="4954.74">
   <stop offset="0" style="stop-opacity:1; stop-color:#C80000"/>
   <stop offset="0.741176" style="stop-opacity:1; stop-color:#640064"/>
   <stop offset="1" style="stop-opacity:1; stop-color:#0000C8"/>
  </radialGradient>
 </defs>
 <g id="Camada_x0020_1">
  <metadata id="CorelCorpID_0Corel-Layer"/>
  <path class="fil0" d="M40008.78 18272.02c8.21,-0.21 16.59,-0.71 24.27,-0.77 60.25,-0.44 120.16,-3.71 180.43,-0.46 47.72,2.57 96.66,14.22 143.6,14.28 877.08,1.21 2277.78,-82.37 2959.36,-691.13 116.18,-103.76 228.66,-214 314.85,-344.64 92.11,-139.64 161.65,-291.78 209.63,-451.95 286.27,-955.56 -185.97,-2168.51 -554.61,-3048.83 -37.52,-89.59 -78.41,-177.72 -116.9,-264.41l-118.91 -252.56c-86.26,-171.09 -171.49,-342.69 -257.17,-514.06 -249.91,-499.81 -520.19,-990.35 -808.08,-1469.27l-1.2 -2.05 -1050.63 -1842.9 -1.73 -3.35c-110.52,-212.85 -229.53,-421.22 -327.08,-640.58 -169.21,-380.51 -352.74,-846.99 -352.74,-1267.48 0,-305.87 81.44,-581.27 273.15,-822 259.2,-325.47 671.25,-524.7 1036.68,-706.41 495.04,-246.15 971.12,-528.41 1465.97,-775.04 47.69,-23.77 96.46,-46.55 141.99,-74.31l4.9 -2.99 1309.1 -692.81 1.24 -0.61c111.15,-55.03 219.5,-115.52 330.1,-171.65 73.54,-37.32 118.21,-76.83 203.17,-99.63 82.02,-22.02 170.86,-37.82 255.92,-37.82 636.45,0 999.58,886.7 1275.09,1346.92 41.17,68.78 74.52,141.08 111.46,212.05 17.53,33.67 39.39,65.02 57.06,98.97l537.55 1075.64c168.63,337.42 332.01,677.93 474.63,1025.97l351.26 829.23 0.4 1c57.17,143.27 114.31,286.57 171.91,429.67 232.29,577.12 425.2,1168.74 623.4,1758.11 229.71,683.05 421.84,1378.64 586.08,2080.2 175.47,749.52 319.17,1506.71 429.36,2268.58 38.67,267.34 71.87,535.44 103.57,803.68 18.65,157.79 36.44,315.7 51.69,473.86 11,114.14 22.57,228.64 24.44,343.37l51.59 819.27c13.14,103.5 5.01,206.19 4.41,309.95 -0.5,87.22 13.41,174.42 14.2,263.01l0 29.6c0,84.3 0.03,168.6 0,252.9l-0.02 30.63 -13.89 850.51c0.4,80.46 -14.51,159.2 -14.58,238.69 -0.07,85.19 -6.52,169.71 -13.41,254.55 -3.16,38.95 1.72,80 -0.33,119.79 -1.96,38.1 -12.22,74.79 -13.99,111.41 -22.13,458.32 -68.85,915.43 -135.85,1369.32 -105.42,714.23 -226.68,1426.59 -401.91,2127.41 -33.27,133.05 -62.88,266.94 -101.9,398.49 -39.12,131.85 -68.6,266.33 -109.31,397.78 -92.71,299.37 -186.88,598.33 -287.93,895.01 -111.21,326.54 -231.5,649.92 -359.1,970.4 -48.44,121.65 -98.59,242.63 -151.8,362.28 -24.96,56.12 -51.9,111.56 -74.68,168.61l-3.02 7.55 -838.17 1655.93 -1.34 2.47c-29.26,53.88 -63.92,104.55 -93,158.38 -117.53,217.64 -249.41,427.45 -387.7,632.43l-401.93 595.76c-150.81,217.95 -312.32,428.41 -474.11,638.25 -97.65,126.64 -196.28,252.54 -297.23,376.58 -73.31,90.07 -146.66,180.76 -227.5,264.26l-170.14 195.63c-21.45,25.65 -45.59,45.65 -66.46,68.05l-240.03 269.18 -2.4 2.51c-117.27,122.42 -235.5,243.91 -354.98,364.17 -74.44,74.93 -149.38,149.39 -225.79,222.33 -60.26,57.51 -120.89,114.98 -186.06,166.96 -89.99,71.78 -166.87,161.07 -253.4,237.5l-2.1 1.8 -680.76 569.28c-464.7,388.6 -974.25,732.08 -1493.74,1042.87l-554.19 320.91c-398.15,221.15 -807.6,422.52 -1224.22,606.42 -435.56,192.26 -882.72,369.12 -1341.12,499.2 -129.87,36.86 -257.63,80.74 -387.63,117.26 -403.5,113.35 -809.98,217.19 -1223.76,285.83 -604.52,100.27 -1207.35,200.54 -1822.15,200.54l-622.85 0c-293.68,0 -587.52,-2.52 -880.73,-20.66 -485.79,-30.05 -966.77,-106.02 -1445.99,-188.36 -554.93,-95.35 -1102.95,-236.79 -1636.85,-415.31 -200.93,-67.19 -402.44,-132.83 -600.3,-208.76 -284.07,-109.01 -565.36,-225.28 -844.38,-346.62 -158.72,-69.02 -316.66,-139.93 -472.63,-214.98 -126.82,-61.02 -253.35,-123.9 -373.76,-196.94l-514 -283.14c-426.33,-243.92 -828.55,-525.33 -1238.13,-795.59 -45.32,-29.91 -87.92,-63.22 -131.37,-95.69l-796.16 -610.6c-376.35,-298.09 -739.76,-615.16 -1079.28,-954.77 -336.29,-336.39 -693.57,-651.01 -1029.66,-987.65 -64.48,-64.59 -129.07,-129.07 -193.61,-193.61l-210.23 -195.69c-167.8,-161.52 -321.65,-339.84 -500.49,-489.34 -40.29,-33.67 -74.23,-71.89 -111.17,-108.83 -266.45,-266.53 -535.84,-530.09 -804.64,-794.24 -177.46,-174.39 -355.07,-348.63 -533.68,-521.85 -62.09,-60.23 -124.26,-120.38 -187.01,-179.93 -25.36,-24.06 -51.34,-52.01 -78.89,-73.24l-8.97 -6.92 -1829.87 -1797.48c-34.22,-32.94 -73.88,-58.8 -108.22,-93.19l-496.87 -497.69c-34.41,-34.48 -76.32,-61.72 -111.73,-96.76 -33.13,-32.78 -65.67,-66.15 -98.6,-99.13l-403.26 -403.88c-34.31,-33.03 -74.04,-58.85 -108.45,-93.43 -502.14,-504.67 -1020.44,-992.94 -1523.91,-1496.27l-203.71 -189.45 -2.86 -2.9c-167.37,-170 -335.61,-339.14 -505.66,-506.46 -163.39,-160.75 -327.95,-320.68 -500.01,-472.21 -145.46,-128.1 -267.79,-278.19 -409.62,-409.38l-1.49 -1.41 -3463.7 -3334.63c-78.19,-63.33 -146.96,-135.1 -217.75,-206.31 -30.95,-31.13 -64.99,-58.76 -98.62,-86.9l-3.46 -2.89 -1771.57 -1630.86c-215.01,-175.62 -440.4,-338.43 -677.5,-482.99 -26.17,-15.95 -51.68,-35 -77.81,-51.72 -26.57,7.24 -61.02,20.88 -78.59,27.72 -61.33,23.92 -121.92,51.18 -181.57,79.01 -98.77,46.08 -201.08,95.55 -296.38,148.52 -1584.31,880.74 -1662.84,2914.13 -1354.82,4491.63 83.5,427.65 173.12,854.55 292.26,1273.91 119.96,422.27 263.24,837.51 400.4,1254.37 97.76,297.1 211.05,588.99 329.39,878.41 115.62,282.76 237.05,563.12 362.23,841.77 247.91,551.83 520.4,1092.11 788.81,1634.12l569.68 1045.6c49.74,84.02 96.35,169.86 146.57,253.59 76.52,127.6 153.57,254.36 218.9,388.24 92.05,188.64 165.31,399.57 151.79,612.37 -20.13,317 -219.82,549.45 -469.51,725.74l-4.06 2.78 -750.78 495.94c-742.8,490.66 -1494.36,967.94 -2234.96,1461.94 -247.79,165.29 -506.52,314.78 -748.3,488.92 -49.99,35.99 -95,75.71 -147.76,108.46 -47.58,29.52 -97.58,62.21 -149.83,82.67 -51.52,20.16 -109.58,30.2 -163.74,40.99 -569.36,113.48 -1072.3,-444.87 -1346.98,-874.55 -41.57,-65.01 -74.69,-134.32 -114.51,-200.15l-2.78 -4.71 -214.41 -384.79c-118.84,-195.79 -216.82,-402.63 -320.33,-606.63l-804.92 -1643.25 -2.49 -6.12c-13.03,-32.01 -28.76,-62.93 -43.8,-94.02 -130.51,-269.72 -245.26,-546.85 -358.7,-824.06 -108.87,-266.04 -214.49,-533.38 -318.99,-801.15 -57.93,-148.41 -109.12,-299.37 -167.72,-447.51l-2.21 -5.88 -159.71 -446.49 -0.35 -1.07c-209.53,-628.92 -409.2,-1261.31 -584.33,-1900.75 -178.23,-650.77 -329.95,-1308.46 -462.4,-1970 -141.83,-708.32 -238.42,-1424.84 -314.34,-2142.96 -83.88,-793.39 -124.76,-1591.83 -124.76,-2389.62 0,-368.09 8.44,-736.21 26.19,-1103.88 20.44,-423.44 52.07,-847.03 109.65,-1267.16 19.92,-145.37 32.91,-291.59 52,-437.07 50.07,-381.56 110.81,-761.74 182.03,-1139.92 85.69,-454.99 185.33,-908.4 315.04,-1353.04 184.42,-632.18 367.29,-1265.64 606.96,-1879.66 46.05,-117.98 91.46,-236.2 138.46,-353.79l0.97 -2.33 293.51 -684.97c23.86,-58.86 56.43,-113.49 80.1,-171.94 58.79,-145.19 130.25,-285.36 200.19,-425.41 71.31,-142.79 141.44,-287.42 224.5,-423.84 31.76,-52.18 54.32,-109.86 85.34,-161.7l455.15 -781.44c154.74,-256.67 326.16,-502.51 491.61,-752.24 359.15,-542.11 782.35,-1036.33 1199.13,-1534.09 72.22,-86.25 160.92,-160.83 228.65,-249.58 67.18,-88.03 153.21,-150.71 222.9,-233.22 5.22,-6.18 10.3,-12.47 15.21,-18.9 49.54,-64.95 108.22,-123.39 165.56,-181.41 77.04,-77.97 155.88,-154.12 235.31,-229.64 124.42,-118.28 249.86,-235.54 378.72,-349l677.13 -575.96 0.81 -0.65c227.77,-185.95 467.2,-356.67 705.34,-528.91 590.79,-427.31 1220.01,-799.99 1871.93,-1125.95 1184.98,-592.49 2428.88,-1023.59 3735.53,-1250.74 294.55,-51.21 590.83,-92.76 887.91,-126.21 304.88,-34.32 612.69,-62.54 919.73,-62.54l641 0c148.96,0 297.93,1.56 446.82,6.39 383.33,12.46 765.01,49.61 1145.62,95.55 572.74,69.13 1135.96,196.17 1695.24,335.06 522.56,129.77 1038.31,297.39 1537.43,499.34 160.67,65 322.39,127.45 481.72,195.74l5.7 2.55 919.17 430.33 1.18 0.59c296.75,148.37 588.51,306.9 872.86,477.87l209.95 126.24c356.72,214.49 705.4,442.49 1046.02,681.69 320.82,225.3 635.33,460.58 934.82,713.72 61.11,51.65 123.57,101.69 184.32,153.78l531.57 455.81c97.54,75.36 177.4,166.25 269.36,247.27l1312.14 1186.35c29.62,27.45 63.06,49.04 92.75,77.74l617.58 561.74 3.72 3.79c55.01,55.97 117.45,104.45 173.24,159.96 25.83,25.7 59.04,46.44 86.51,71.85 26.57,24.59 49.72,52.44 75.29,76.11l614.18 556.79c30.63,25.4 61.22,47.93 89.8,76.08l440.92 398.77 2.88 2.82c167.18,163.67 347.71,313.07 516.24,475.4 28.25,27.21 62.45,48.38 91.6,76.44 24.88,23.95 48.21,52.88 74.41,74.76l5.49 4.78 960.71 867.13c34.92,28.61 63.56,60.77 95.44,92.37 26.01,25.79 59.21,46.6 86.79,72.13 28.29,26.18 52.99,56.74 81.62,81.97l783.32 713.39c33.49,29.5 68.56,53.55 100.48,85.74 21.42,21.61 43.13,46.61 67.27,65.14l6.03 4.62 707.76 641.22 3.74 3.8c109.91,111.92 235.69,207.03 346.27,318.8l863.89 785.33c83.1,64.79 160.13,137.35 236.64,209.67 67.66,63.94 134.31,128.95 200.5,194.42l265.66 236.64 2.6 2.49c25,23.99 48.36,52.98 74.62,74.94 34.21,28.59 68.44,54.54 100.2,86.12l168.37 154.38 3.26 3.29c111.74,112.44 237.87,209.51 349.7,322.29 24.25,24.46 55.62,45.1 81.84,68.19 31.81,28.02 59.33,59.17 89.17,88.99l697.04 632.05c34.72,27.66 64,58.35 95.05,89.8l609.87 553 3.69 3.77c189.94,193.48 402.25,363.77 602.24,546.54l1138.25 1040.27 3.61 3.67c22.78,23.2 47.18,42.77 72.54,62.99l4.53 3.61 182.7 164.93c27.93,25.83 52.35,56.16 80.55,80.99 33.49,29.48 68.55,53.56 100.46,85.74 239.04,241.03 510.83,458.2 784.19,658.98 128.37,94.28 263.22,179.43 394.46,269.61 0.51,0.35 1.01,0.7 1.52,1.06zm-32044.93 -2121.21l-79.99 -43.86c-235.48,-119.08 -489.17,-203.95 -738.68,-288.29 -917.42,-310.09 -2062.08,-361.47 -2929.68,121.84 -329.06,183.31 -631.11,422.35 -857.33,725.69 -32.53,43.61 -66.84,86.09 -97.77,130.85 -1206.58,1745.89 -795.54,4617.41 -310.91,6556.24 125.24,501.06 280.22,993.9 421.17,1490.6 136.83,482.23 324.58,948.26 484.62,1422.92 102.11,302.87 220.37,600.2 340.31,896.36 153.03,377.84 312.25,753.14 474.54,1127.09 162.65,374.75 328.56,748.1 498.01,1119.83 133.38,292.6 268.3,584.56 409.62,873.43l317.51 649.04c85.37,174.51 189.2,368.48 226.86,559.96 11.26,57.26 16.67,113.8 17.54,170.3l2058.1 -1348.08c81.83,-53.6 164.56,-105.83 246.32,-159.55l481.86 -316.57c147.82,-97.11 466.51,-261.95 466.51,-466.4 0,-126.39 -128.02,-383.91 -194.03,-493.18l-2.81 -4.8 -588.98 -1042.98 -2.32 -4.65c-22.32,-44.84 -49.95,-87.18 -73.14,-131.73 -22.99,-44.18 -44.07,-89.29 -66.36,-133.82l-677.46 -1353.68c-23.61,-47.17 -40.8,-97.22 -64.57,-143.99 -23.8,-46.85 -43.27,-95.35 -64.82,-143.2l-126.12 -280.1c-391.68,-869.89 -734.88,-1764.85 -1007.03,-2679.49 -301.87,-1014.49 -536.29,-2107.75 -536.29,-3169.79 0,-818.67 160.36,-1752.49 619.81,-2444.3 58.58,-88.2 117.75,-175.83 185.52,-257.33 46.12,-55.47 92.5,-110.73 136.6,-167.83 88.45,-114.53 194.08,-193.67 298.02,-291.09 87.78,-82.29 189.43,-152.35 289.87,-218.24 93.91,-61.62 189.98,-119.91 287.27,-176 50.91,-29.35 104.17,-57.96 158.23,-85.2zm-2508.27 15936.41c6.29,-7.62 11.94,-15.02 16.62,-21.96 185.45,-274.52 98.59,-528.13 -37.99,-801.28l-1 -2.05 -1117.59 -2365.27 -1.8 -4.4c-295,-721.98 -624.67,-1429.97 -886.53,-2165.24 -18.71,-52.53 -38.36,-104.73 -58.92,-156.57 -104.35,-263.15 -184.15,-534.89 -283.45,-799.8 -81.17,-216.56 -145.45,-438.73 -219.02,-657.86 -226.96,-676.03 -406.63,-1368.54 -565.23,-2063.5 -55.42,-242.86 -108.75,-486.32 -149.62,-732.12 -41.67,-250.56 -84.15,-501 -120.62,-752.39 -75.74,-522.03 -115.08,-1051.15 -121.34,-1578.56 -6.68,-562.95 20.67,-1158.26 151.04,-1707.34 28.63,-120.57 50.42,-242.31 85.72,-361.31 175,-589.86 419.31,-1209.59 833.35,-1674.35 35.92,-40.32 67.75,-82.59 106.41,-120.78 64.02,-63.24 125.28,-129.21 189.49,-192.29 88.56,-87.02 186.57,-162.66 285.68,-237.1 182.27,-136.9 375.59,-254.44 585.22,-344.67 169.22,-72.83 340.72,-138.94 517.87,-190.01 182.26,-52.53 366.16,-87.5 554.63,-108.47 506.61,-56.38 1056.1,-21.17 1577.52,89.86 -172.3,-86.89 -349.82,-162.84 -529.36,-233.66 -676.59,-266.89 -1557.24,-349.73 -2247.35,-90.81 -601.42,225.66 -1121.63,639.64 -1476.8,1174.84 -62.05,93.5 -123.37,187.53 -181.33,283.65 -115.07,190.83 -213.05,394.71 -295.66,601.58 -43.04,107.77 -85.35,215.92 -122.05,326.05 -39.13,117.41 -77.14,235.24 -110.67,354.39 -33.69,119.7 -61.78,240.92 -90.18,361.96 -60.27,256.88 -102.52,518.27 -135.26,779.99 -35.13,280.76 -54.16,563.78 -69.01,846.25 -9.3,176.89 -16.06,353.99 -16.61,531.15 -0.37,120.57 -1.3,248.47 16.76,367.77 23.59,155.76 11.92,310.83 24.38,466.67 29.26,365.83 69.18,730.69 123.95,1093.62 47.7,316.06 103.81,630.78 157.23,945.9 84.28,497.23 214.21,988.04 348.73,1473.72 135.36,488.73 281.27,974.67 440.74,1456.1 84.64,255.53 177,508.45 271.05,760.64 119.05,319.27 242.11,637.04 368.59,953.44 119.66,299.32 242.29,597.48 370.18,893.39 103.6,239.73 209.59,478.75 327.04,712.08l1102.2 2189.64c119.48,237.36 254.06,466.75 382.99,699.1zm35580.06 -13257.48c20.13,9.42 40.3,18.74 60.52,27.96 169.75,77.34 343.12,146.46 516.78,214.45 1096.13,429.09 2403.04,637.55 3566.92,405.6 1006.14,-200.52 1711.94,-701.94 2227.03,-1589.68 60.67,-104.57 110.19,-218.24 156.75,-329.7 45.62,-109.2 90.48,-221.69 121.84,-334.93l104.89 -392.35c111.99,-477.28 143.95,-978.92 136.05,-1468.08 -8.18,-507.04 -60.12,-1014.34 -143.71,-1514.33 -68.36,-408.96 -150.01,-815.3 -253.98,-1216.78 -77.98,-301.07 -164.64,-599.77 -247.71,-899.44l-209.54 -665.64c-78.17,-215.62 -153,-432.43 -230.08,-648.44 -151.61,-424.89 -323.17,-842.3 -494.1,-1259.68 -125.7,-306.94 -258.63,-610.89 -393.89,-913.72 -135.29,-302.94 -272.47,-605.18 -419.58,-902.6l-656.12 -1326.52c-29.53,-54.59 -62.91,-102.67 -86.93,-161l-2.3 -5.59 -229.03 -676.29 -2.38 -11.72c-9.15,-45.06 -15.97,-89.73 -20.93,-134.52l-2105.65 1115.1c-47.17,24.98 -95.69,47.12 -143.27,71.26 -46.43,23.57 -89.79,52.57 -136.67,75.82 -45.43,22.53 -91.41,44.05 -136.29,67.68l-280.18 147.45c-53.7,30.06 -108,59.04 -162.33,87.95 -373.1,198.52 -758.83,388.14 -758.83,871.84 0,323.77 179.44,821.11 325.15,1110.17 168.83,334.93 334.18,672.43 527.59,994.14l1.29 2.2 1390.24 2448.3c193.78,333.5 356.56,683.73 528.08,1028.86l1.66 3.34 238.39 527.74 1.35 3.32c193.64,479.02 380.5,962.38 506.88,1464.22 213.92,849.52 265.92,1793.6 -256.82,2547.1 -233.82,337.04 -582.39,607.72 -951.08,783.17 -650.38,309.5 -1373.34,417.9 -2090.01,453.34zm1658.6 1147.34c158.06,58.47 318.53,110.16 480.38,151.32 244.88,62.28 490.76,123.72 741.29,158.83 636.96,89.26 1295.34,85.87 1920.55,-77.24 448.71,-117.06 864.14,-312.86 1234.76,-592.35 155.62,-117.36 316.59,-264.77 445.47,-410.98 134.76,-152.9 260.87,-322.13 366.01,-496.78 216.2,-359.1 375.19,-724.54 481.68,-1130.07 108.99,-415.01 159.71,-846.44 207.36,-1272.1 1.02,-9.16 1.64,-18.36 2,-27.57 2.81,-71.01 -5.41,-137.4 4.45,-209.34 9.82,-71.6 10.07,-146.58 10.46,-218.79 0.57,-104.67 -2.03,-209.34 -5.6,-313.94 -6.01,-176.37 -15.79,-352.58 -24.28,-528.85 -9.51,-197.36 -36.15,-394.38 -62.62,-590.08 -27.34,-202.01 -57.66,-403.62 -91.06,-604.72 -40.36,-242.95 -88.62,-484.57 -140.91,-725.22 -54.41,-250.39 -112.73,-500.22 -182.77,-746.76 -34.34,-120.9 -63.29,-243.25 -97.82,-364.09 -294.25,-1029.93 -659.61,-2035.28 -1065.64,-3026.03 -161.6,-394.31 -332.58,-784.74 -508.49,-1172.86 -178.79,-394.45 -362.57,-786.77 -557.52,-1173.53 -25.42,-50.44 -45.32,-102.98 -69.58,-153.78l-604.85 -1165.62c55.99,163.6 125.59,323.41 201.41,478.49l914.39 1870.31c58.19,115.65 111.18,233.83 163.99,352.01 69.33,155.17 136.99,311.09 203.95,467.3 117.82,274.88 234.66,550.22 345.66,827.95 510.49,1277.35 962.14,2586.36 1232.37,3937.53 74.43,372.18 134.24,747.02 181.08,1123.66 32.7,263 36.11,528.19 65.65,791.31 16.95,150.96 3.22,302.07 3.24,453.31 0.1,925.96 -217.1,2039.23 -737.94,2817.41 -59.5,88.91 -122.11,175.63 -185.97,261.44 -30.46,40.93 -64.93,78.27 -95.98,118.57 -153,198.65 -385.93,399.39 -586.64,550.15 -88.7,66.62 -180.47,128.22 -275.47,185.49 -527.47,318.02 -1051.94,480.07 -1659.06,566.56 -703.5,100.21 -1521.41,43.48 -2253.95,-110.94zm3013.26 -14856.74l1208.68 2416.99 1.79 4.06c96,218.2 197.79,433.82 289.86,653.74l795.96 2010.46c24.18,61.07 42.3,123.86 63.57,185.9l178.8 521.6c397.79,1160.45 702.88,2375.19 839.64,3595.58 66.75,595.59 92.87,1199.84 55.69,1798.38 -71.02,1143.45 -377.45,2284.25 -1126.56,3175.73l-1.59 1.84 -202.28 229.43 -4.3 4.31c-295.77,295.76 -635.7,540.46 -1009.8,727.51 -913.65,456.83 -2014.9,555.29 -3014.64,390.47 -428.34,-70.61 -844.56,-183.48 -1254.43,-325.61l-5.52 -1.99 -427.67 -166.02c-42.57,-17.33 -83.22,-38.9 -125.7,-56.13 -95.58,-38.76 -184.93,-88.85 -276.97,-134.88 -594.76,-297.38 -1138.96,-676.21 -1648.27,-1102.21 -133.23,-111.44 -252.12,-248.6 -396.67,-344.96 -351.69,-234.42 -693.42,-486.1 -1002.65,-772.63l-504.38 -453.3c-40.49,-32.28 -72.65,-68.94 -109.66,-104.58 -131.69,-126.85 -278.55,-236.57 -408.69,-365.53 -24.38,-24.16 -48.57,-52.62 -75.63,-73.52 -119.16,-92.02 -227.64,-197.78 -336.61,-301.4 -92.58,-88.04 -183.96,-177.54 -279.85,-262 -38.66,-34.05 -78.8,-63.63 -115.15,-100.74 -24.98,-25.51 -50.83,-47.49 -78.84,-69.54l-5.68 -4.47 -408.9 -377.82 -3.01 -3.06c-96.31,-97.77 -208.34,-178.71 -305.19,-276.78l-693.71 -635.46c-67.86,-54.95 -127.09,-119.49 -194.98,-173.68l-4.95 -3.95 -1018.23 -930.24 -3.23 -3.26c-61.88,-62.29 -130.94,-117.01 -192.94,-179.5l-502.86 -461.29 -3.06 -2.97c-32.57,-32.27 -72.15,-57.38 -105.63,-90.56 -63.91,-63.34 -134.11,-119.8 -197.39,-184.03 -97.51,-98.97 -210.91,-180.82 -308.57,-280.51 -25.67,-26.19 -55.71,-48.45 -83.78,-72l-3.05 -2.55 -1922.82 -1752.85c-29.5,-26.89 -55.42,-60.2 -84.71,-84.71l-3.52 -2.9 -306.34 -279.68 -0.98 -0.95c-139.47,-134.33 -286.66,-260.48 -432.21,-388.11 -161.35,-141.5 -324.61,-281.66 -475.16,-434.8 -29.72,-30.24 -67.32,-55.29 -98.91,-84.51 -29.9,-27.67 -57.63,-62.91 -88.83,-87.83l-3.23 -2.58 -208.71 -182.1 -3.44 -3.33c-27.44,-26.54 -54.5,-59.09 -84.53,-82.38l-5.93 -4.6 -1211.84 -1101.65c-40.76,-32.73 -78.92,-66.63 -115.63,-103.97 -29.74,-30.25 -67.37,-55.31 -98.97,-84.58 -26.59,-24.64 -51.99,-55.97 -80.3,-77.83 -44.16,-34.08 -82.06,-70.75 -121.21,-110.22 -30.46,-30.72 -68.77,-55.11 -98.3,-83.66l-304.16 -275.87 -2.88 -2.84c-257.56,-253.8 -535.44,-486 -800.61,-731.66 -135.83,-125.84 -283.1,-237.78 -413.01,-370.4 -190.17,-194.13 -411.53,-355.28 -603.71,-548.11l-814.56 -717.43c-31.38,-27.64 -64.36,-53.38 -95.73,-81.06l-415.1 -335.26c-281.18,-227.1 -570.82,-444.24 -871.97,-644.24 -618.22,-410.58 -1247.71,-805.66 -1912.16,-1137.87 -519.33,-259.66 -1056.65,-480.46 -1597.91,-689.71 -186.18,-71.97 -377.77,-129.1 -566.92,-192.6 -392.26,-131.7 -794.73,-228.49 -1198.48,-317.43 -741.02,-163.25 -1497.78,-256.13 -2255.97,-282.99 -1307.81,-46.34 -2637.67,102.4 -3896.77,462.14 -492.89,140.83 -984.4,294.52 -1453.93,501.83 -446.07,196.95 -893.62,393.49 -1319.7,631.6 -208.69,116.63 -417.66,233.18 -619.9,360.81 -302.66,190.99 -595.31,397.16 -890.99,598.64 -112.62,76.74 -220.3,160.85 -327.62,244.76 -150.11,117.37 -298.18,237.33 -444.85,358.96 -132.69,110.04 -264.25,221.46 -393.67,335.32 -99.45,87.49 -198.55,175.84 -292.01,269.78 -98.08,98.59 -199.11,194.17 -298.82,291.09 -106.52,103.54 -217.32,206.93 -312.64,320.98 -42.17,50.44 -85.17,99.43 -131.98,145.67 -177.08,174.88 -336.18,370.69 -493.99,562.91 -168.13,204.79 -333.7,411.86 -492.46,624.04 -353.2,472.05 -680.2,963.55 -982.91,1469.39 -154.08,257.48 -308.57,515.48 -441.98,784.46 -135.21,272.62 -278.83,541.42 -402.55,819.57 -256.4,576.43 -496.21,1161.18 -695.73,1759.95 -210.38,631.35 -386.05,1273.9 -534.1,1922.62 -61.39,268.98 -108.96,540.88 -161.94,811.59 -54.76,279.84 -99.72,562.04 -131.62,845.42l-76.86 682.54c-8.47,66.76 -18.67,133.93 -22.39,201.14 -8.83,159.6 -11.66,318.88 -34.64,477.37l-49.53 1168.45c0.64,278.13 3.04,556.27 9.57,834.33 6.56,279.31 12.85,560.41 43.27,838.3 10.69,97.64 14.48,195.87 16.99,294.01 2.31,90.29 19.56,180.97 26.59,271.22 6.76,86.74 13.2,173.62 24.15,259.96 11.87,93.66 19.42,187.77 29.84,281.59 85.74,771.92 221.77,1537.25 372.39,2298.84 32.31,163.36 71.54,325.26 108.41,487.62 213.32,939.28 495.98,1861.17 798.33,2771.98l320.28 878.23c57.83,143.11 109.48,288.59 166.48,430.36l356.11 848.56c58.08,138.4 116.45,276.74 179.85,412.81 127.3,273.17 267.88,540.1 382.94,818.9 140.91,341.44 336.46,658.72 500.25,989.38l205.98 384.03 1.3 2.61c15.51,31.02 35.3,60.41 52.12,90.84l262.68 475.03c96.33,159.83 289.9,441.06 495.93,599.93 -21.12,-37.03 -41.5,-74.47 -62.28,-111.71l-2.05 -3.66 -1534.95 -3069.37c-28.7,-59.73 -56.16,-120.06 -82.19,-181.01l-307.12 -719.19c-49.03,-119.79 -98.74,-239.3 -146.81,-359.48 -47.99,-119.98 -95.8,-240.04 -143.97,-359.96 -250.59,-623.83 -470.76,-1259.68 -667.5,-1902.45 -380.09,-1241.79 -683.04,-2510.89 -832.93,-3802.31 -9.1,-78.4 -21.86,-156.11 -27.16,-234.96 -4.86,-72.41 -8.51,-145.38 -18.91,-217.26 -34.87,-240.81 -39.65,-488.42 -45.39,-731.43 -5.75,-243.44 -6.67,-486.96 -6.67,-730.46 0,-1247.39 277.93,-2702.05 924.23,-3780.68 74.4,-124.17 151.25,-247.25 238.02,-363.24 86.03,-115.01 171.87,-230.36 273.39,-332.43l139.95 -154.38 3.27 -3.28c607.77,-607.76 1441.05,-1004.54 2308.71,-1004.54 285.64,0 568.45,19.84 849.22,74.22 254.17,49.23 501.83,124.48 746.93,206.97 253.66,85.37 485.98,213.25 724.93,331.44l6.28 3.1 375.39 222.57c173.67,102.96 335.45,223.26 496.71,344.3 155.65,116.83 307.92,238.03 453.28,367.5 18.88,16.81 41.11,30.3 58.47,45.71l593.78 498.2c362.55,242.35 705.62,513.71 1024.52,811.2l633.22 590.72 2.59 2.62c28.5,28.74 60.43,53.76 91.44,79.7l4.65 3.89 1746.37 1661.19c105.75,93.7 193.11,205.59 298.54,298.45 40.34,35.53 82.39,67.64 119.27,104.86l609.05 595.65c32.93,32.21 72.27,57.51 105.1,90l2866.44 2782.93c129.92,130.15 252.34,269.16 390.45,390.79 40.72,35.86 82.98,68.23 121.36,106.96 157.55,158.97 305.72,339.16 483.07,476.11 106.69,82.39 201.55,183.47 295.37,280.02 79.33,81.64 157.1,164.8 237.13,245.75 29.99,30.34 67.53,55.5 99.29,84.87 413.49,382.45 785.14,808.52 1207.96,1180.85 212.15,186.83 388.75,411.81 605.13,592.69 152.06,127.12 279.62,277.3 419.31,416.98 332.38,332.37 669.7,659.74 1005.74,988.39 224.55,219.62 449.3,439.05 675.05,657.43 78.47,75.9 157,151.74 236.15,226.94 33.89,32.2 67.5,67.55 103.97,96.65 156.32,124.69 282.13,277.59 421.91,417.4l611.62 597.73c32.44,32.82 72,60.3 106.19,91.92 35.83,33.13 68.75,68.88 103.21,103.34 66.88,66.87 133.74,133.76 200.62,200.64l203.05 188.48 2.14 2.12c64.37,63.71 125.83,130.22 188.63,195.44 63.6,66.04 129.55,135.95 202.49,191.63 155.08,118.36 274.76,269.41 419.9,397.25l4.18 3.78 877.29 820.16 1284.68 1008.9c75.05,56.13 152.49,108.97 230.57,160.77 76.11,50.49 148.16,107.94 226.23,155.22l1000 605.66c83.24,48.14 168.8,92.19 254.93,134.89 43.77,21.71 84.02,48.55 124.55,69.73l538.83 262.37c224.38,112.26 458.78,203.08 691.5,296.22 387.87,155.23 786.05,282.71 1183.76,409.91 560.55,179.29 1148.23,295.01 1730.21,378.65 561.05,80.64 1131.18,132.39 1698.3,132.39 394.26,0 798.83,6.88 1190.27,-44.29 292.2,-38.2 586.79,-60.19 877.51,-109.12 1053.27,-177.26 2083.64,-450.72 3061.38,-885.62 448.76,-199.61 901.03,-397.12 1323.58,-649.11l631.82 -376.78c49.34,-29.42 96.81,-61.93 144.52,-93.89 270.5,-181.17 539.08,-365.33 802.22,-557.08 281.26,-204.96 560.14,-417.7 815.24,-654.86 194.23,-180.57 403.15,-345.88 590.26,-533.94 246.88,-248.13 494.82,-495.64 728.52,-756.36l228.15 -254.46c341.56,-403.83 683.98,-808.83 984.74,-1244.56 66.01,-95.62 135.51,-188.87 199.76,-285.69 132.78,-200.08 269.37,-397.9 393.14,-603.78 185.8,-309.07 380.02,-614.4 540.95,-937.52 27.63,-55.47 61.31,-107.6 88.76,-162.95 27.93,-56.32 56.2,-112.47 84.32,-168.69 55.81,-111.6 111.59,-223.22 166.61,-333.17l156.37 -327c102.88,-231.25 205.09,-462.92 298.21,-696.35l343.49 -907.53c72.7,-182.26 121.04,-373.81 183.89,-559.6 199.66,-590.24 344.61,-1201.58 468.33,-1811.81 126.09,-621.87 229.15,-1249.5 299.05,-1877.76l59.2 -681.15c6.04,-78.44 8.1,-156.85 18.94,-234.89l49.92 -1713.8c0.52,-93.11 -14.6,-185.85 -14.25,-279.56 1.23,-330.29 -33.46,-659.56 -41.55,-989.65 -0.97,-39.5 -12.14,-80.44 -14.09,-121.44 -12.66,-265.56 -52.89,-529.05 -70.47,-794.32 -5.67,-85.64 -19.97,-170.78 -29.29,-256.09 -92.02,-842.18 -247.3,-1677.98 -436.96,-2503.33 -206.7,-899.5 -455.96,-1789.89 -747.9,-2665.46 -468.63,-1405.45 -1044.47,-2772.87 -1706.2,-4096.42l-397.97 -768.38c-31.85,-63.74 -68.89,-124.78 -99.7,-185.77l-101.17 -186.45c-68.52,-118.9 -143.75,-233.81 -214.3,-351.5z"/>
 </g>
</svg>
