<?xml version="1.0" encoding="UTF-8"?>
<!DOCTYPE svg PUBLIC "-//W3C//DTD SVG 1.1//EN" "http://www.w3.org/Graphics/SVG/1.1/DTD/svg11.dtd">
<!-- Creator: CorelDRAW 2020 (64 Bit) -->
<svg xmlns="http://www.w3.org/2000/svg" xml:space="preserve" width="500mm" height="500mm" version="1.1" style="shape-rendering:geometricPrecision; text-rendering:geometricPrecision; image-rendering:optimizeQuality; fill-rule:evenodd; clip-rule:evenodd"
viewBox="0 0 50000 50000"
 xmlns:xlink="http://www.w3.org/1999/xlink"
 xmlns:xodm="http://www.corel.com/coreldraw/odm/2003">
 <defs>
  <style type="text/css">
   <![CDATA[
    .fil0 {fill:url(#id0)}
   ]]>
  </style>
  <radialGradient id="id0" gradientUnits="userSpaceOnUse" gradientTransform="matrix(2.0589 1.10298 1.64842 -1.041 -22923 23459)" cx="2039.65" cy="12596.05" r="13599.48" fx="2039.65" fy="12596.05">
   <stop offset="0" style="stop-opacity:1; stop-color:#C80000"/>
   <stop offset="0.639216" style="stop-opacity:1; stop-color:#640064"/>
   <stop offset="1" style="stop-opacity:1; stop-color:#0000C8"/>
  </radialGradient>
 </defs>
 <g id="Camada_x0020_1">
  <metadata id="CorelCorpID_0Corel-Layer"/>
  <path class="fil0" d="M25031.38 11430.89c96.21,73.89 174.94,164.16 266.29,244.61l1310.22 1184.64c29.82,27.61 62.21,47.88 92.19,77.23l616.72 560.95 1.71 1.74c55.41,56.37 117.9,104.89 174.05,160.78 27.46,27.33 60.39,47.76 89.19,74.43 26.82,24.81 50.07,52.75 76.06,76.81l615.81 558.28c30.54,25.41 57.67,44.34 86.53,73.11l441.15 398.98 1.42 1.39c166.42,164.95 348.1,313.44 516.84,475.98 28.67,27.61 62.1,48.04 91.61,76.47 26.9,25.9 51.27,55.75 79.81,79.59l2.52 2.19 962.64 868.88c33.7,27.25 59.49,57.09 90.02,87.34 27.56,27.33 60.49,47.84 89.32,74.55 28.64,26.49 53.39,57.13 83.49,83.65l783.34 713.41c32.28,28.42 64.2,49.5 95.43,80.98 25.88,26.11 48.4,51.66 77.66,74.27l2.72 2.09 702.44 636.41 1.63 1.65c111.25,112.18 237.31,208.28 348.42,320.99l868.85 789.81c80.41,62.39 158.35,135.83 232.27,205.69 67.72,64.01 134.48,129.11 200.72,194.66l266.26 237.19 1.22 1.17c26.9,25.93 51.31,55.76 79.85,79.61 33.68,28.16 63.61,50 95.05,81.55l168.22 154.25 1.59 1.61c111.1,113.03 237.8,209.47 349.62,322.2 27.1,27.35 58.06,47.55 86.86,72.93 30.94,27.24 57.25,57.51 86.28,86.38l701.4 636c34.4,26.99 59.99,54.85 90.4,85.59l609.74 552.89 1.63 1.64c192.25,193.87 404.81,366.33 606.21,550.39l1136.23 1038.42 1.67 1.7c27.55,28.13 51.17,46.89 81.78,71.31l2.07 1.65 179.44 161.99c28.63,26.47 53.39,57.13 82.41,82.68 32.27,28.42 64.2,49.5 95.42,80.97 239.38,241.38 522.41,468.25 796.3,669.43 129.28,94.95 264.94,180.65 397.09,271.47 6.48,4.45 19.93,14.61 27.1,17.47 11.56,2.76 45.05,0.96 57.52,0.86 58.01,-0.43 116.16,-3.76 174.15,-0.61 51.41,2.76 96.82,14.36 148.97,14.42 908.77,1.26 2322.41,-87.15 3027.82,-717.2 123.43,-110.22 240.58,-225.86 332.12,-364.66 97.75,-148.17 171.36,-309.02 222.28,-478.97 295.21,-985.44 -179.05,-2212.26 -558.27,-3117.87 -38.07,-90.9 -79.46,-180.19 -118.71,-268.49l-120.11 -255.02c-86.2,-170.99 -171.39,-342.5 -257.02,-513.77 -249.58,-499.17 -524.37,-997.93 -811.92,-1476.24l-1049.62 -1841.16 -0.81 -1.56c-109.26,-211.03 -227.74,-417.67 -324.39,-635 -161.23,-362.56 -343.88,-824.36 -343.88,-1225.82 0,-814.55 615.05,-1119.42 1252.93,-1436.58 495.07,-246.19 971.19,-528.46 1466.06,-775.09 50.68,-25.26 101.21,-49.05 149.64,-78.54l2.23 -1.35 1305.12 -690.71c111.49,-55.2 220.09,-115.82 331.01,-172.1 65.2,-33.09 109.54,-72.24 183.35,-92.04 72.28,-19.41 154.32,-34.31 229.32,-34.31 571.9,0 937.3,879.75 1187.12,1297.05 40.32,67.37 72.37,137.33 108.48,206.73 17.38,33.36 38.92,64.11 57.07,98.97l536.78 1074.12c167.48,335.15 330.21,674.32 471.93,1020.15l350.84 828.21c57.21,143.38 114.39,286.77 172.03,429.97 231.53,575.21 423.79,1165.08 621.34,1752.5 228.46,679.36 420.05,1373.12 583.41,2070.89 174.67,746.07 318.04,1501.5 427.74,2259.88 38.48,266.04 71.67,534.12 103.2,801.05 18.57,157.03 36.28,314.27 51.46,471.66 10.65,110.58 22.35,226.46 24.02,337.56l51.95 825.05c12.76,96.76 4.57,201.87 4,299.55 -0.51,88.03 13.4,174.48 14.2,263.6l0 29.6c0,84.28 0,168.58 0,252.86l-0.02 29 -13.9 852.7c0.42,81.37 -14.5,158.38 -14.57,238.08 -0.07,83.68 -6.32,163.2 -13.07,246.33 -3.26,40.14 1.57,82.02 -0.53,122.82 -2.05,39.74 -12.18,73.57 -14.01,111.74 -21.96,454.71 -68.42,908.98 -134.88,1359.3 -105.04,711.67 -225.34,1419.18 -399.95,2117.51 -32.89,131.57 -62.14,264.14 -100.72,394.2 -39,131.43 -68.38,265.61 -108.95,396.61 -92.44,298.47 -186.3,596.5 -287.04,892.27 -110.75,325.17 -230.23,646.39 -357.31,965.54 -47.97,120.46 -97.53,240.05 -150.23,358.54 -25.48,57.28 -52.6,114.19 -76.2,172.25l-1.35 3.32 -835.44 1650.56 -0.63 1.16c-29.4,53.95 -63.99,104.69 -93.11,158.59 -115.65,214.18 -246.4,422.08 -382.48,623.81l-401.25 594.76c-148.73,214.94 -311.37,426.96 -470.99,633.98 -97.07,125.89 -195.21,251.17 -295.56,374.48 -70.89,87.09 -145.26,178.99 -223.52,259.6l-173.24 199.22c-20.81,24.88 -43.99,43.72 -64.34,65.6l-238.81 267.81 -1.14 1.19c-117.14,121.7 -234.64,243.02 -353.68,362.84 -73.77,74.27 -148.12,148.13 -223.85,220.41 -57.37,54.76 -117.17,111.51 -179.19,160.98 -91.43,72.93 -169.5,163.21 -257.34,240.81l-680.77 569.27c-456.37,381.61 -969.16,727.56 -1480.59,1033.53l-551.33 319.27c-394.46,219.08 -803.09,420.04 -1215.84,602.24 -428.35,189.08 -876.99,366.49 -1327.7,494.38 -129.8,36.84 -257.49,80.7 -387.38,117.18 -400.24,112.44 -802.36,215.3 -1212.82,283.38 -600.57,99.64 -1194.23,199.17 -1805.36,199.17l-622.84 0c-291.57,0 -583.32,-2.47 -874.41,-20.47 -482.25,-29.83 -959.22,-105.32 -1434.96,-187.07 -548.59,-94.25 -1093.96,-235.03 -1621.68,-411.5 -199.6,-66.74 -399.54,-131.81 -596.09,-207.24 -282.14,-108.27 -563.12,-224.41 -840.23,-344.92 -157.44,-68.47 -314.35,-138.9 -469.06,-213.35 -123.37,-59.36 -249.79,-122.17 -366.85,-193.31l-514.46 -283.36c-426.02,-243.77 -823.58,-522.33 -1232.56,-792.2 -43.67,-28.8 -83.79,-60.33 -126.47,-92.23l-793.87 -608.83c-371.49,-294.25 -735.33,-611.71 -1070.43,-946.89 -336.2,-336.31 -693.62,-651.06 -1029.61,-987.61 -64.94,-65.04 -129.98,-129.97 -194.96,-194.96l-210.34 -195.78c-169.5,-163.14 -325.17,-343.1 -505.84,-494.12 -37.92,-31.7 -69.65,-67.9 -104.41,-102.66 -266.5,-266.59 -536.42,-530.66 -805.28,-794.88 -177.63,-174.53 -355.42,-348.94 -534.17,-522.32 -62.36,-60.47 -124.79,-120.9 -187.81,-180.7 -26.33,-24.98 -58.46,-58.09 -86.88,-80.07l-4.1 -3.16 -1826.23 -1793.9c-34.02,-32.74 -72.45,-57.41 -106.76,-91.78l-496.88 -497.68c-35,-35.07 -76.35,-61.76 -112.17,-97.2 -32.99,-32.64 -65.37,-65.86 -98.16,-98.69l-404.72 -405.31c-34.06,-32.79 -72.51,-57.36 -106.86,-91.87 -502.65,-505.18 -1021.47,-993.91 -1525.41,-1497.78l-203.42 -189.18 -1.27 -1.29c-168.11,-170.03 -336.36,-339.91 -506.82,-507.61 -164.27,-161.61 -331.22,-323.76 -504.15,-476.06 -144.68,-127.41 -266.58,-277.14 -407.76,-407.71l-3466.94 -3337.74c-77.41,-62.21 -143.12,-131.43 -212.91,-201.63 -34.3,-34.48 -68.41,-62.21 -105.56,-93.26l-1.58 -1.32 -1772.01 -1631.27c-219.57,-179.49 -449.13,-345.37 -691.34,-493.05 -35.13,-21.42 -74.85,-51.87 -110.97,-71.29 -102.96,2.4 -531.13,219.7 -626.58,272.76 -1627.62,904.83 -1723.19,2974.6 -1405.64,4600.9 84.16,431.05 174.18,859.58 294.26,1282.28 120.02,422.47 264.35,841.15 401.64,1258.39 98.29,298.74 212.87,594.13 331.87,885.18 116.05,283.78 237.98,565.32 363.62,844.97 248.7,553.61 522.07,1095.65 791.34,1639.41l571.52 1048.98c50.2,84.7 97.17,171.23 147.8,255.65 162.48,270.96 377.08,613.78 356.29,941.37 -18.04,283.94 -202.76,490.63 -425.55,647.94l-2.22 1.52 -750.77 495.93c-742.92,490.75 -1494.63,968.1 -2235.34,1462.21 -248.16,165.51 -509.63,316.93 -751.33,491.01 -48.54,34.96 -90.25,72.49 -141.91,104.53 -129.41,80.31 -131.39,80.71 -279.54,110.24 -518.49,103.34 -991.82,-440.17 -1240.54,-829.22 -41.14,-64.38 -73.75,-132.82 -113.16,-197.99l-1.56 -2.67 -214.73 -385.36c-117.67,-193.6 -214.57,-398.53 -317.53,-601.43l-802.72 -1638.78 -1.16 -2.84c-14.04,-34.7 -30.22,-66.44 -46.47,-100.03 -128.9,-266.37 -244.02,-544.36 -356.09,-818.24 -108.65,-265.51 -214.08,-532.34 -318.37,-799.59 -57.99,-148.57 -109.23,-299.64 -167.9,-447.95l-1.01 -2.7 -159.33 -445.43c-209.01,-627.38 -407.99,-1257.55 -582.7,-1895.43 -177.79,-649.2 -328.63,-1303.1 -460.77,-1963.04 -141.21,-705.27 -237.32,-1418.58 -312.91,-2133.61 -83.37,-788.6 -124.19,-1585.88 -124.19,-2378.84 0,-366.3 8.42,-733.05 26.08,-1098.93 20.25,-419.31 51.8,-842.2 108.81,-1258.2 19.95,-145.59 32.96,-291.95 52.08,-437.64 49.8,-379.47 110.31,-758.16 181.14,-1134.27 84.79,-450.27 184.37,-903.35 312.71,-1343.31 183.63,-629.49 365.37,-1259.66 604.03,-1871.09 45.94,-117.73 91.26,-235.68 138.17,-353.03l294.28 -686.83c23.85,-58.83 56.43,-113.49 80.11,-171.98 56.61,-139.8 129.43,-282.98 196.9,-418.09 68.39,-136.95 140.82,-285.76 220.32,-416.31 32.13,-52.78 54.88,-110.78 86.38,-163.41l454.37 -780.12c153.98,-255.44 324.61,-500.03 489.26,-748.55 356.97,-538.83 778,-1030.13 1192.27,-1524.88 72.96,-87.14 163.31,-163.8 231.54,-253.2 71.39,-93.55 168.57,-160.98 238.13,-252.15 45.25,-59.31 104.48,-118.41 156.98,-171.53 76.23,-77.17 154.39,-152.66 233.01,-227.39 122.76,-116.71 247.58,-233.43 375.83,-346.37l675.03 -574.13c226.21,-184.68 464.08,-354.19 700.59,-525.25 586.33,-424.09 1210.69,-793.83 1857.69,-1117.33 1178.4,-589.21 2407.41,-1015.47 3707.23,-1241.44 292.03,-50.77 587.29,-92.15 881.82,-125.32 298.49,-33.61 607.82,-61.9 908.26,-61.9l641.01 0c147.86,0 295.7,1.54 443.48,6.34 381.29,12.39 758.07,49.17 1136.66,94.87 568.74,68.64 1127.47,194.84 1682.82,332.76 515.22,127.94 1031.73,295.84 1523.68,494.89 160.06,64.74 321.06,126.9 479.79,194.93l2.61 1.17 917.99 429.77c294.31,147.15 583.84,304.47 865.87,474.04l209.95 126.24c354.19,212.96 701.73,440.23 1039.92,677.72 317.59,223.04 631.1,457.54 927.56,708.11 60.92,51.51 123.2,101.36 183.77,153.31l533.6 457.56zm-16841.07 11227.15l-258.63 -141.82c-239.22,-121.16 -499.95,-208.93 -753.66,-294.69 -945.73,-319.65 -2118.86,-368.39 -3012.42,129.39 -341.92,190.47 -654.61,438.84 -889.63,753.98 -33.32,44.69 -68.21,87.95 -99.93,133.85 -1227.21,1775.73 -818.73,4668.2 -326.03,6639.39 126,504.07 280.38,994.59 422.01,1493.73 137.17,483.38 325.63,951.77 486.1,1427.69 102.34,303.57 222.19,605.19 342.42,902.09 153.32,378.54 312.93,754.77 475.53,1129.43 162.89,375.3 329.06,749.26 498.76,1121.53 133.68,293.24 269.18,586.46 410.82,875.96l317.51 649.04c187.36,382.99 270.43,538.13 219.44,884.46l2231.36 -1461.56c81.88,-53.64 164.63,-105.89 246.43,-159.62l481.87 -316.59c190.08,-124.88 512.73,-290.16 512.73,-552.1 0,-149.39 -131.63,-418.46 -208.79,-546.19l-1.29 -2.2 -587.67 -1040.65 -1.11 -2.25c-22.53,-45.87 -50.44,-88.13 -73.99,-133.38 -22.75,-43.69 -43.58,-88.33 -65.61,-132.37l-677.46 -1353.68c-23.71,-47.35 -40.9,-97.42 -64.86,-144.55 -23.23,-45.71 -41.76,-92.25 -62.74,-138.84l-126.12 -280.11c-388.91,-863.77 -732.04,-1758.54 -1002.24,-2666.63 -297.25,-998.94 -532.03,-2094.86 -532.03,-3140.56 0,-798.45 155.73,-1714.55 602.69,-2387.56 56.55,-85.12 113.53,-169.84 178.93,-248.5 47.22,-56.78 93.68,-112.12 138.93,-170.72 85.55,-110.77 186.82,-185.09 286.97,-278.95 81.76,-76.65 182.3,-145.86 275.99,-207.32 92.16,-60.47 186.75,-117.83 282.24,-172.89 67.01,-38.64 207.14,-112.21 333.48,-166.81zm-643.41 -687.08c-10.04,-6.85 -20.05,-13.6 -30.06,-20.24 -189.84,-125.71 -381.89,-247.74 -582.92,-354.97 -204.1,-108.86 -414.57,-200.22 -629.63,-285.05 -701.33,-276.64 -1607.46,-359.13 -2321,-91.41 -621.75,233.29 -1159.14,660.98 -1526.22,1214.14 -62.95,94.85 -124.9,189.9 -183.7,287.4 -117.08,194.19 -218.98,405.93 -303.08,616.51 -43.86,109.85 -86.69,219.36 -124.1,331.65 -39.69,119.09 -78.11,238.15 -112.11,359.02 -34.06,121.03 -62.57,243.94 -91.29,366.34 -60.89,259.55 -104.09,526.2 -137.17,790.67 -35.15,280.92 -54.82,570.93 -69.67,853.6 -9.39,178.38 -16.2,357.56 -16.75,536.21 -0.38,122.65 -0.44,262.19 17.92,383.44 22.91,151.44 11.38,307.12 23.56,459.48 29.53,369.25 69.49,734.47 124.76,1100.76 47.77,316.57 104.02,632.09 157.53,947.73 83.91,495.12 216.96,1000 351.01,1483.95 135.6,489.56 282.45,978.72 442.21,1460.98 84.92,256.4 177.94,511.17 272.31,764.22 119.3,319.98 242.69,638.58 369.46,955.68 119.98,300.14 243.02,599.3 371.26,896.01 104.1,240.89 211.58,483.08 329.57,717.5l1102.22 2189.65c139.57,277.27 300.68,545.51 448.72,819.09 50.13,-37.7 104.83,-97.18 127.45,-130.67 209.27,-309.76 122.2,-597.64 -31.26,-904.53l-1116.42 -2362.79 -0.76 -1.85c-299.66,-717.6 -623.84,-1427.96 -884.85,-2160.86 -19.12,-53.71 -39.19,-106.98 -60.2,-159.97 -104.07,-262.45 -183.7,-533.76 -282.75,-797.99 -80.71,-215.3 -144.67,-436.58 -217.83,-654.51 -224.65,-669.15 -405.45,-1365.59 -562.47,-2053.67 -55,-240.96 -107.89,-482.26 -148.44,-726.13 -41.55,-249.84 -83.92,-499.64 -120.28,-750.29 -74.74,-515.1 -114.13,-1044.7 -120.3,-1565.07 -6.5,-548.22 21.36,-1147.84 148.27,-1682.42 28.2,-118.74 49.49,-238.64 84.27,-355.84 170.06,-573.29 409.15,-1183.55 811.6,-1635.3 34.86,-39.13 64.14,-78.72 101.92,-116.03 63.99,-63.22 125.26,-129.18 189.28,-192.1 85.34,-83.83 179.89,-156.51 275.41,-228.25 176.35,-132.46 361.33,-245.18 564.17,-332.49 356.74,-153.55 653.69,-247.39 1043.3,-290.75 744.45,-82.86 1590.08,37.72 2289.07,307.96l27.99 11.19zm33075.96 3269.49c0.92,0.48 1.86,0.94 2.79,1.42 141.57,71.87 283.51,143.31 428,209.14 171.45,78.13 346.51,147.95 521.92,216.62 1114.04,436.11 2441.31,646.46 3624.33,410.68 1036.44,-206.55 1766.26,-726.37 2295.68,-1638.78 61.74,-106.43 115.27,-228.08 162.68,-341.63 46.66,-111.68 94.19,-232.07 126.27,-347.99l105.67 -395.4c113.53,-483.9 146.76,-997.15 138.75,-1493.15 -8.24,-511.01 -60.85,-1025.62 -145.1,-1529.59 -69.19,-413.87 -150.66,-819.33 -255.86,-1225.57 -78.48,-303.02 -165.83,-604.08 -248.62,-902.85l-210.75 -669.42c-78.37,-216.14 -153.38,-433.47 -230.65,-650.01 -152.09,-426.26 -324.29,-845.35 -495.78,-1264.08 -125.97,-307.6 -259.6,-613.18 -395.15,-916.68 -135.59,-303.58 -273.89,-608.22 -421.3,-906.24l-656.93 -1328.15c-28.27,-52.51 -60.15,-96.77 -83.22,-152.95l-1.04 -2.55 -225.9 -667.03 -1.09 -5.38c-20.27,-99.65 -27.17,-186.81 -29.52,-278.81l-2245.53 1189.17c-46.69,24.73 -94.62,46.55 -141.69,70.44 -46.3,23.5 -89.15,52.25 -135.84,75.4 -46.16,22.9 -92.88,44.79 -138.48,68.79l-282.5 148.72c-450.53,252.18 -973.62,443.39 -973.62,1049.27 0,338.24 183.91,854.37 336.12,1156.31 170.08,337.45 336.39,676.67 531.27,1000.83l1390.75 2449.18c191.31,329.23 353.36,682.66 524.92,1022.98l0.82 1.66 236.76 524.14 0.58 1.4c194.15,473.61 377.33,953.76 502.51,1450.83 206.65,820.55 263.31,1735.76 -241.63,2463.61 -223.34,321.93 -558.46,581.32 -910.89,749.03 -757.9,360.68 -1622.7,442.34 -2458.73,456.64zm814.08 752.72c242.15,144.75 499.82,273.75 754.62,387.84 305.32,136.69 633.3,264.25 957.79,346.78 249.04,63.33 497.47,125.27 752.33,160.99 1140.58,159.83 2291.91,19.11 3231.29,-689.27 152.56,-115.05 334.38,-281.79 460.64,-425.05 136.21,-154.54 270.69,-335.21 376.94,-511.69 498.09,-827.32 597.79,-1503.13 703.08,-2443.65 8.64,-77.25 -4.76,-154.86 6.14,-234.39 10.22,-74.65 11,-156.83 11.42,-232.17 0.57,-105.94 -2.06,-212.1 -5.66,-317.97 -6.03,-176.93 -15.82,-353.5 -24.34,-530.3 -9.53,-197.82 -36.86,-402.56 -63.43,-598.9 -27.45,-202.9 -57.98,-405.79 -91.53,-607.77 -40.57,-244.27 -89.27,-488.24 -141.85,-730.19 -54.7,-251.76 -113.91,-505.16 -184.33,-753.02 -34.36,-120.95 -63.31,-243.32 -97.86,-364.23 -296.85,-1039.01 -659.82,-2037.42 -1069.37,-3036.74 -161.96,-395.19 -333.66,-787.31 -509.98,-1176.31 -179.19,-395.34 -363.93,-789.72 -559.32,-1177.34 -25.8,-51.18 -45.85,-104.3 -69.38,-153.39l-855.23 -1648.14c-7.46,-12.23 -14.71,-24.04 -21.65,-35.72 -52.37,148.22 27.51,425.86 64.8,541.69 59.84,185.87 138.96,370.37 224.74,545.83l914.91 1871.36c57.26,113.83 109.98,231.41 161.96,347.75 69.12,154.68 136.58,310.15 203.33,465.87 117.32,273.72 234.16,549.07 344.68,825.6 507.74,1270.49 958.27,2575.71 1227.04,3919.59 74.14,370.7 133.22,741.05 179.88,1116.2 32.86,264.24 36,527.12 65.51,790.1 16.02,142.62 2.59,297.69 2.6,441.88 0.1,905.29 -212.32,2000.97 -720.6,2760.37 -58.72,87.76 -120.02,172.58 -183.04,257.26 -30.24,40.63 -64.21,77.29 -94.95,117.2 -141.57,183.8 -380.58,390.74 -566.99,530.74 -86.91,65.29 -173.73,123.54 -266.83,179.66 -517.74,312.17 -1023.84,467.87 -1620.58,552.86 -851.17,121.25 -1890.55,5.57 -2714.53,-233.32 -107.87,-31.27 -214.6,-66.32 -322.64,-96.98 -153.22,-43.46 -309.3,-103.09 -459.61,-163.03zm3884.76 -14915.07l1501.63 3002.84 0.78 1.76c96.87,217.16 197.28,432.63 289.14,652.03l795.2 2008.6c23.65,59.72 41.13,120.79 61.91,181.41l178.8 521.61c393.73,1148.63 699.42,2366.23 834.74,3573.75 185.41,1654.52 70.97,3565.69 -1047.47,4896.71l-200.16 227.01 -2.02 2.02c-289,287.38 -618.42,525.96 -983.15,708.32 -893.77,446.89 -1973.71,542.3 -2952.1,381.01 -425.7,-70.19 -830.4,-180.14 -1237.53,-321.32l-2.98 -1.09 -425.13 -165.02c-42.62,-17.34 -83.19,-38.88 -125.82,-56.17 -92.97,-37.7 -180.08,-86.79 -269.65,-131.58 -588.85,-294.41 -1124.1,-667.4 -1628.34,-1089.14 -138.43,-115.78 -254.26,-250.75 -405.59,-351.63 -347.57,-231.67 -685.2,-480.26 -990.98,-763.57l-506.77 -455.46c-39.82,-31.24 -68.72,-65.39 -104.68,-100.01 -131.33,-126.5 -277.91,-235.95 -407.66,-364.52 -28.37,-28.11 -53.34,-57.31 -85.12,-81.84 -114.08,-88.09 -224.07,-195.12 -328.63,-294.55 -93.28,-88.7 -186.18,-179.59 -282.73,-264.63 -37.39,-32.93 -74.12,-59.27 -109.66,-95.55 -29.86,-30.49 -55.44,-51.85 -88.68,-78.36l-2.48 -1.96 -404.16 -373.44 -1.32 -1.34c-97.32,-98.11 -209.86,-179.8 -307.06,-278.66l-698 -639.4c-69.28,-55.66 -128.77,-120.88 -197.91,-176.04l-2.27 -1.82 -1013.88 -926.26 -1.47 -1.49c-62.57,-62.92 -132.08,-117.86 -194.55,-181.13l-503.7 -462.06 -1.2 -1.16c-32.95,-32.64 -71.83,-57.05 -105.62,-90.53 -63.69,-63.12 -133.45,-119.17 -196.52,-183.19 -97.48,-98.93 -210.83,-180.71 -308.37,-280.3 -29.63,-30.24 -58.87,-51.83 -91.12,-78.78l-1.42 -1.19 -1921.27 -1751.43c-30.76,-28.06 -57.15,-61.78 -88.68,-88.15l-1.46 -1.21 -303.36 -276.96c-140.07,-134.91 -289.47,-263.13 -435.73,-391.37 -158.05,-138.61 -322.37,-279.75 -469.65,-429.58 -31.79,-32.33 -69.04,-57.06 -102.38,-87.89 -32.1,-29.69 -60.64,-65.68 -94.49,-92.68l-1.49 -1.19 -205.04 -178.9 -1.54 -1.49c-31.18,-30.04 -58.6,-63.17 -92.99,-89.72l-2.77 -2.14 -1211.22 -1101.1c-40.16,-32.11 -72.78,-60.87 -109.11,-97.83 -31.8,-32.34 -69.1,-57.06 -102.43,-87.93 -29.73,-27.55 -55.21,-58.98 -87.33,-83.77 -42.66,-32.94 -73.47,-63.37 -111.04,-101.25 -32.23,-32.5 -70.73,-57.02 -102.23,-87.41l-302.59 -274.44 -1.37 -1.36c-257.04,-254.76 -537.3,-487.79 -802.89,-733.84 -134.57,-124.68 -280.76,-235.57 -409.45,-366.93 -190.73,-194.72 -414,-357.25 -606.66,-551.07l-817.1 -719.67c-31.91,-28.12 -65.43,-54.2 -97.28,-82.44l-416.88 -336.7c-283.46,-228.93 -576.07,-448.27 -879.67,-649.88 -622.77,-413.62 -1253.54,-809.45 -1923.03,-1144.19 -523.11,-261.55 -1061.62,-482.87 -1606.79,-693.62 -187.77,-72.6 -380.53,-130.14 -571.26,-194.17 -396.61,-133.15 -800.89,-230.45 -1209.05,-320.37 -746.82,-164.52 -1510.29,-258.25 -2274.41,-285.31 -1317.28,-46.68 -2660.33,103.65 -3928.57,466.01 -497.27,142.07 -993.48,297.49 -1467.17,506.63 -449.31,198.39 -899.09,396.04 -1328.31,635.89 -210.3,117.53 -420.8,235 -624.6,363.6 -304.56,192.2 -596.65,398.02 -894.01,600.62 -113.58,77.4 -224.76,164.06 -333.03,248.72 -150.84,117.95 -299.78,238.58 -447.16,360.81 -133.43,110.63 -265.81,222.77 -395.93,337.26 -100.68,88.57 -202.41,179.38 -296.98,274.45 -97.58,98.08 -198.39,193.44 -297.61,289.88 -106.58,103.6 -224.72,214.95 -319.84,328.74 -40.98,49.03 -79.78,93.46 -125.36,138.48 -175.8,173.64 -344.23,379.64 -501.17,570.8 -168.58,205.33 -336.14,414.92 -495.32,627.67 -355.28,474.82 -684.29,969.34 -988.8,1478.18 -155.35,259.6 -311.35,520.38 -445.84,791.55 -135.82,273.85 -280.12,544.09 -404.39,823.46 -257.59,579.1 -498.89,1167.7 -699.31,1769.2 -211.55,634.79 -387.95,1279.97 -536.8,1932.21 -61.64,270.11 -109.41,542.92 -162.6,814.73 -55.05,281.29 -100.82,568.81 -132.89,853.64l-76.68 681.1c-8.69,68.45 -19.24,139.66 -23.05,208.38 -8.77,158.65 -11.17,315.81 -34.48,473.41l-49.87 1176.04c0.65,279.59 3.07,559.28 9.62,838.78 6.55,278.98 13.5,569.77 43.86,847.05 10.32,94.38 13.98,190.56 16.41,285.46 2.35,91.54 19.72,184.94 26.85,276.56 6.88,88.27 13.52,177.06 24.65,264.9 11.82,93.21 19.29,186.69 29.67,280.02 86.05,774.89 222.51,1542.9 373.71,2307.41 32.51,164.41 71.9,327.06 109.01,490.44 214.28,943.53 498.08,1869.04 801.99,2784.4l320.87 879.9c58.26,143.99 110.23,290.38 167.67,433.24l356.11 848.56c58.63,139.71 117.45,279.06 181.46,416.44 126.25,270.9 267.15,538.61 381.09,814.71 141.08,341.86 340.74,667.66 503.89,997.27l206.08 384.2 0.65 1.29c16.28,32.94 36.38,62.54 54.1,94.6l263.59 476.69c146.11,242.83 494.64,741.5 833.01,767.99 -40.7,-77.79 -99.58,-170.2 -128.11,-217.17 -32.62,-53.7 -62.42,-108.94 -92.91,-163.86l-0.91 -1.63 -1533.19 -3065.81c-28.06,-58.42 -54.86,-117.29 -80.32,-176.9l-306.51 -717.76c-48.94,-119.54 -98.54,-238.77 -146.5,-358.71 -48.02,-120.03 -95.86,-240.13 -144.04,-360.09 -249.5,-621.06 -468.73,-1254.33 -664.6,-1894.24 -378.27,-1235.83 -679.94,-2498.91 -829.11,-3784.14 -8.89,-76.6 -21.56,-153.04 -26.72,-230 -5.03,-74.93 -8.97,-150.73 -19.74,-225.08 -33.42,-230.85 -38.85,-485.69 -44.36,-719.16 -5.74,-242.65 -6.63,-485.33 -6.63,-728.04 0,-1228 274.29,-2667.63 909.65,-3727.98 72.35,-120.74 147.81,-241.77 232.15,-354.52 83.22,-111.25 167.34,-224.68 265.64,-323.19l139.87 -154.31 1.51 -1.5c588.53,-588.53 1395.95,-974.51 2236.21,-974.51 280.51,0 554.01,18.96 829.71,72.35 249.9,48.4 492.76,122.4 733.71,203.49 249.23,83.9 477.88,209.12 712.19,326.16l2.8 1.39 372.04 220.57c170.74,101.21 328.96,219.14 487.46,338.11 153.81,115.47 302.93,234.1 446.62,362.07 19.79,17.62 42.06,31.14 60.75,47.68l598.08 501.8c359.73,240.12 699.93,509 1016.2,804.03l631.76 589.36 1.19 1.2c32.13,32.43 63.65,57.05 98.46,86.15l2.13 1.79 1745.34 1660.22c106.33,93.9 194.19,206.54 300.1,299.82 39.51,34.79 78.77,64.33 115.34,101.22l609.04 595.64c33.34,32.61 72.06,57.3 105.38,90.27l2865.3 2781.8c131.42,131.65 255.6,272.31 395.25,395.31 39.51,34.79 78.77,64.32 116.3,102.18 159.44,160.88 314.23,346.88 493.23,485.09 98.44,76.02 197.53,180.82 284.5,270.33 79.5,81.81 157.58,165.26 237.75,246.36 31.93,32.3 69.19,57.2 102.58,88.07 414.08,383 786.4,809.65 1209.82,1182.52 212.78,187.37 389.99,412.88 607.14,594.4 149.23,124.77 275.37,273.64 412.56,410.83 332.33,332.31 670.53,660.55 1006.55,989.19 224.68,219.75 449.55,439.33 675.46,657.82 78.67,76.12 157.45,152.18 236.82,227.57 34.36,32.66 73.82,73.11 110.65,102.48 152.39,121.57 277.5,273.88 414.18,410.58l610.37 596.48c34.28,34.68 73.72,62.03 109.49,95.1 34.9,32.28 66.78,67.03 100.33,100.58 67.32,67.32 134.64,134.66 201.96,201.98l203.24 188.66 0.99 0.97c63.68,63.04 124.71,129.14 186.89,193.69 65.93,68.48 138.64,144.39 214.14,202.01 151.9,115.93 271.63,267 414.35,392.69l1.91 1.74 880.52 823.17 1290.07 1013.1c76.74,57.39 155.47,111.15 235.3,164.11 77.47,51.39 150.2,109.26 229.79,157.47l1001.77 606.71c85.16,49.26 172.61,94.31 260.73,138 43.93,21.78 84.1,48.61 125.21,70.05l537.84 261.87c227.17,113.68 463.68,205.44 699.28,299.73 390.37,156.23 790.37,284.37 1190.62,412.38 561.38,179.54 1163.91,298.7 1746.87,382.48 562.62,80.87 1144.2,133.43 1712.87,133.43 392.41,0 814.93,5.64 1203.57,-45.17 293.35,-38.33 589.42,-60.55 881.24,-109.65 1064.29,-179.12 2098.25,-453.69 3086.03,-893.06 452.63,-201.33 908.2,-400.56 1334.43,-654.74l631.81 -376.77c51.14,-30.49 99.67,-63.67 149.07,-96.76 271.6,-181.89 541.36,-366.88 805.55,-559.41 282.55,-205.9 568.49,-424.49 824.67,-662.63 194.95,-181.25 405.41,-348.07 593.13,-536.73 248.1,-249.36 497.33,-498.18 732.19,-760.23l230.08 -256.68c343.79,-406.47 688.12,-813.97 990.84,-1252.53 66.37,-96.16 136.21,-189.87 200.82,-287.24 133.69,-201.45 270.93,-400.33 395.57,-607.65 187.17,-311.34 382.74,-619.16 544.86,-944.64 27.7,-55.63 61.27,-107.54 88.83,-163.12 27.88,-56.2 56.11,-112.25 84.17,-168.37 56.03,-112.06 112.05,-224.13 167.41,-334.8l157.56 -329.54c103.67,-233.07 206.46,-466.2 300.4,-701.75l342.84 -905.84c73.31,-183.79 122.38,-377.3 185.78,-564.72 199.66,-590.22 347.94,-1213.92 471.69,-1824.29 126.44,-623.59 230.6,-1258.86 300.72,-1889.26l59.28 -682.18c5.94,-77.34 7.93,-157.3 19.03,-234.02l50.13 -1721.95c0.53,-93.64 -14.6,-185.25 -14.25,-279.75 1.24,-332.7 -33.47,-660.78 -41.57,-992.54 -1.06,-42.65 -12.13,-80.42 -14.2,-123.8 -12.69,-266.39 -52.93,-530.23 -70.56,-796.24 -5.76,-86.99 -20.2,-173.73 -29.68,-260.44 -92.24,-844.15 -248.84,-1687.83 -438.95,-2515.15 -207.11,-901.21 -458.06,-1797.69 -750.57,-2674.94 -470.75,-1411.78 -1047.63,-2781.49 -1712.42,-4111.14l-397.29 -767.05c-32.31,-64.66 -69.77,-126.5 -101.32,-188.86l-102.44 -188.72c-69.31,-120.27 -145.45,-236.53 -216.74,-355.62 -90.9,-151.86 -265.59,-441.34 -472.2,-486.93z"/>
 </g>
</svg>
