<?xml version="1.0" encoding="UTF-8"?>
<!DOCTYPE svg PUBLIC "-//W3C//DTD SVG 1.1//EN" "http://www.w3.org/Graphics/SVG/1.1/DTD/svg11.dtd">
<!-- Creator: CorelDRAW 2020 (64 Bit) -->
<svg xmlns="http://www.w3.org/2000/svg" xml:space="preserve" width="700mm" height="100mm" version="1.1" style="shape-rendering:geometricPrecision; text-rendering:geometricPrecision; image-rendering:optimizeQuality; fill-rule:evenodd; clip-rule:evenodd"
viewBox="0 0 70000 10000"
 xmlns:xlink="http://www.w3.org/1999/xlink"
 xmlns:xodm="http://www.corel.com/coreldraw/odm/2003">
 <defs>
  <style type="text/css">
   <![CDATA[
    .fil0 {fill:black;fill-rule:nonzero}
   ]]>
  </style>
 </defs>
 <g id="Camada_x0020_1">
  <metadata id="CorelCorpID_0Corel-Layer"/>
  <path class="fil0" d="M-2.08 2669.41c0,-42.45 13.41,-78.2 39.1,-107.25 25.7,-29.04 61.45,-43.57 108.37,-43.57l770.85 0c31.28,0 60.33,6.71 88.25,21.23 27.93,14.52 53.63,37.98 75.97,69.26 380.96,545.19 759.68,1087.02 1133.94,1625.49 375.37,537.37 754.09,1079.2 1135.05,1624.38l0 -3213c6.7,-40.22 23.46,-71.5 50.27,-93.84 26.81,-22.34 59.21,-33.52 97.19,-33.52l646.85 0c44.68,0 83.78,13.41 116.18,40.22 32.4,26.81 48.04,62.56 48.04,107.25l0 4695.49c0,91.61 -52.51,137.41 -157.52,137.41l-726.16 0c-49.16,0 -94.96,-30.16 -137.42,-90.49 -393.24,-569.76 -784.25,-1139.52 -1174.15,-1709.28 -388.77,-568.64 -778.67,-1139.52 -1169.68,-1711.51l0 3363.81c0,49.16 -11.17,86.03 -34.63,110.6 -23.46,24.58 -63.68,36.87 -119.54,36.87l-643.49 0c-51.39,0 -88.26,-13.41 -111.72,-39.1 -23.46,-25.7 -35.75,-60.33 -35.75,-105.02l0 -4685.43z"/>
  <path id="1" class="fil0" d="M8269.49 5008.78c0,225.67 40.22,436.81 121.77,633.44 81.56,196.62 193.27,367.55 335.16,512.78 140.76,145.23 308.34,260.3 501.61,345.21 192.15,84.9 401.06,127.35 626.73,127.35 223.44,0 431.23,-42.45 623.39,-127.35 193.27,-84.91 360.84,-199.98 503.84,-345.21 143,-145.23 254.72,-316.16 336.27,-512.78 81.56,-196.63 121.77,-407.77 121.77,-633.44 0,-223.44 -40.21,-433.47 -121.77,-630.09 -81.55,-196.62 -193.27,-368.67 -336.27,-515.02 -143,-146.35 -310.57,-261.42 -503.84,-346.32 -192.16,-84.91 -399.95,-127.36 -623.39,-127.36 -225.67,0 -434.58,42.45 -626.73,127.36 -193.27,84.9 -360.85,199.97 -501.61,346.32 -141.89,146.35 -253.6,318.4 -335.16,515.02 -81.55,196.62 -121.77,406.65 -121.77,630.09zm-971.94 6.7c0,-234.61 30.16,-461.39 90.49,-680.36 60.33,-218.97 146.35,-423.41 258.07,-613.33 111.71,-189.92 244.66,-363.08 399.95,-519.49 154.17,-156.4 327.33,-290.46 517.25,-401.06 188.8,-110.6 393.24,-196.62 609.98,-258.07 217.84,-61.44 444.63,-91.61 681.47,-91.61 234.61,0 460.28,30.17 678.13,91.61 216.73,61.45 421.17,147.47 609.98,258.07 189.91,110.6 363.08,244.66 519.48,401.06 156.41,156.41 289.35,329.57 399.95,519.49 110.6,189.92 196.62,394.36 258.07,613.33 61.44,218.97 91.61,446.87 91.61,683.71 0,236.84 -30.17,463.63 -91.61,680.36 -61.45,216.73 -147.47,420.06 -258.07,609.98 -110.6,189.92 -243.54,361.96 -399.95,517.25 -156.4,155.29 -329.57,288.23 -519.48,398.83 -188.81,110.6 -393.25,196.62 -609.98,256.95 -217.85,60.33 -444.64,90.49 -681.48,90.49 -236.84,0 -463.63,-30.16 -681.48,-90.49 -216.73,-60.33 -421.17,-146.35 -609.97,-258.07 -189.92,-111.71 -363.09,-245.77 -517.26,-401.06 -155.28,-155.29 -288.23,-327.33 -398.83,-516.14 -110.6,-188.8 -195.5,-392.12 -255.83,-609.97 -60.33,-217.85 -90.49,-444.64 -90.49,-681.48z"/>
  <path id="2" class="fil0" d="M15394.84 2676.12c0,-105.02 49.15,-157.53 147.46,-157.53l2053.37 0c225.67,0 436.82,42.46 633.44,127.36 196.62,84.91 368.67,199.98 515.02,345.21 146.35,145.23 261.42,316.16 345.2,513.9 83.79,196.62 126.25,405.53 126.25,626.73 0,154.17 -21.23,301.64 -63.68,442.41 -42.46,140.76 -101.67,271.47 -177.63,392.12 -75.97,121.78 -166.46,230.14 -271.48,327.34 -105.01,97.19 -221.2,179.86 -348.56,246.89l874.75 1720.45c4.47,22.35 12.29,44.69 23.46,67.03 11.17,22.35 16.76,45.81 16.76,70.38 0,67.03 -39.1,100.55 -117.3,100.55l-780.91 0c-80.44,0 -134.06,-41.34 -160.87,-124.01l-814.42 -1612.08c-35.75,0 -73.74,1.12 -115.07,3.35 -42.45,2.24 -99.43,3.35 -172.05,3.35 -72.61,0 -168.69,0 -285.99,0 -117.31,0 -269.24,0 -455.81,0l0 1585.27c0,96.08 -51.39,144.12 -154.17,144.12l-670.31 0c-44.68,0 -80.43,-12.29 -107.24,-35.75 -26.82,-23.46 -40.22,-59.21 -40.22,-108.37l0 -4678.72zm2828.68 1459.03c0,-94.96 -17.87,-188.81 -53.62,-278.18 -35.75,-90.49 -86.02,-172.05 -151.94,-242.43 -64.79,-71.5 -141.88,-129.59 -231.25,-174.28 -90.49,-44.68 -187.69,-70.38 -292.7,-77.08 -79.32,-2.24 -155.29,-4.47 -231.26,-5.59 -74.85,-1.11 -153.05,-1.11 -233.49,-1.11l-662.48 0 0 1555.1 888.15 0c44.69,0 87.14,0 126.24,0 39.11,0 81.56,-2.23 126.25,-6.7 105.01,-6.7 202.2,-31.28 290.46,-73.73 88.26,-42.46 164.23,-98.32 226.79,-168.7 63.68,-70.38 111.71,-150.82 146.35,-241.31 34.63,-89.37 52.5,-185.45 52.5,-285.99z"/>
  <path id="3" class="fil0" d="M21839.82 2666.06c0,-44.69 14.53,-80.44 43.57,-107.25 29.05,-26.81 65.92,-40.22 110.6,-40.22l3522.46 0c40.21,0 77.08,12.29 109.48,36.87 32.4,24.58 50.27,61.45 54.74,110.6l0 588.75c0,45.81 -13.41,84.91 -41.34,118.42 -27.92,33.52 -69.26,50.28 -122.88,50.28l-1273.58 0 0 3921.28c0,40.22 -13.41,75.97 -41.34,107.25 -27.93,31.28 -67.03,46.92 -116.19,46.92l-656.89 0c-40.22,0 -77.09,-14.52 -109.49,-43.57 -32.4,-29.05 -48.04,-65.91 -48.04,-110.6l0 -3921.28 -1276.93 0c-44.68,0 -81.55,-14.53 -110.6,-42.46 -29.04,-27.93 -43.57,-69.26 -43.57,-126.24l0 -588.75z"/>
  <path id="4" class="fil0" d="M28576.39 2666.06c0,-37.98 13.41,-71.5 39.1,-101.66 25.7,-30.17 60.33,-45.81 105.02,-45.81l670.3 0c37.98,0 73.73,14.53 107.25,43.57 33.51,29.05 50.27,63.68 50.27,103.9l0 1736.09 2245.52 0 0 -1736.09c0,-40.22 13.41,-74.85 40.22,-103.9 26.81,-29.04 62.56,-43.57 107.25,-43.57l660.25 0c44.69,0 83.79,13.41 116.19,39.1 32.4,25.7 48.04,60.33 48.04,105.02l0 4688.78c0,98.31 -52.51,147.47 -157.53,147.47l-666.95 0c-98.31,0 -147.47,-49.16 -147.47,-147.47l0 -2031.02 -2245.52 0 0 2031.02c0,98.31 -54.74,147.47 -164.22,147.47l-663.6 0c-96.08,0 -144.12,-45.8 -144.12,-137.41l0 -4695.49z"/>
  <path id="5" class="fil0" d="M37424.42 7401.77c-24.58,-46.93 -46.92,-94.96 -67.03,-143 -20.11,-48.04 -40.22,-97.2 -60.33,-148.59l-1759.55 -4410.6c0,-6.71 -1.12,-15.64 -4.47,-27.93 -3.35,-12.29 -5.58,-27.93 -5.58,-45.81 0,-71.5 45.8,-107.25 137.41,-107.25l717.23 0c84.9,0 142.99,42.46 174.27,127.36 49.16,140.77 109.49,306.11 179.87,494.91 70.38,188.8 145.23,388.78 224.55,599.92 79.32,211.15 160.88,427.88 244.66,649.08 83.79,221.2 165.35,435.7 244.66,643.49 79.32,208.92 153.06,403.3 221.21,585.4 68.14,182.1 125.12,338.51 172.04,468.1 49.16,-129.59 107.25,-286 174.28,-468.1 67.03,-182.1 139.65,-376.48 216.73,-585.4 77.09,-207.79 156.41,-422.29 239.08,-643.49 82.67,-221.2 163.1,-437.93 241.31,-649.08 78.2,-211.14 153.05,-411.12 223.43,-599.92 70.38,-188.8 130.71,-354.14 182.1,-494.91 31.28,-84.9 91.61,-127.36 180.98,-127.36l703.82 0c100.55,0 150.82,36.87 150.82,110.6 0,15.64 -1.11,30.17 -4.47,43.57 -3.35,13.41 -5.58,22.35 -5.58,26.82l-1756.2 4410.6c-17.88,44.69 -35.75,89.38 -53.63,135.18 -17.87,45.81 -37.98,90.49 -60.32,132.95 -31.28,58.09 -72.62,92.72 -124.01,103.89 -51.39,11.17 -112.83,16.76 -184.33,16.76l-385.43 0c-51.39,0 -87.14,-10.05 -108.36,-30.16 -21.23,-20.11 -37.99,-42.46 -49.16,-67.03z"/>
  <path id="6" class="fil0" d="M42930.98 2666.06c0,-40.22 12.29,-74.85 36.87,-103.9 24.57,-29.04 61.44,-43.57 110.6,-43.57l666.95 0c37.98,0 73.73,13.41 107.25,40.22 33.51,26.81 50.27,62.56 50.27,107.25l0 4685.43c0,98.31 -52.5,147.47 -157.52,147.47l-666.95 0c-98.31,0 -147.47,-49.16 -147.47,-147.47l0 -4685.43z"/>
  <path id="7" class="fil0" d="M49925.62 3845.8c-29.05,0 -55.86,-7.82 -80.44,-22.35 -24.58,-14.52 -52.51,-33.51 -83.79,-58.09l-6.7 -3.35c-42.45,-42.45 -97.19,-89.37 -164.22,-140.76 -67.03,-51.39 -141.88,-99.43 -224.56,-144.12 -82.67,-44.69 -170.92,-82.67 -265.88,-113.95 -94.96,-31.28 -192.16,-46.92 -290.47,-46.92 -125.12,0 -235.72,14.52 -331.8,42.45 -96.08,27.93 -176.51,65.91 -241.31,113.95 -64.8,48.04 -113.95,103.9 -147.47,168.69 -33.51,65.92 -50.27,135.18 -50.27,208.92 0,80.43 24.58,150.82 74.85,211.14 50.27,60.33 118.42,113.95 204.44,160.88 86.03,46.92 184.34,90.49 296.06,129.59 111.71,39.1 229.02,78.2 351.91,116.18 140.76,42.46 280.41,88.26 417.82,137.42 138.53,49.15 271.47,103.89 397.71,166.46 125.13,61.44 243.55,129.59 353.03,204.44 109.48,74.85 203.33,160.87 282.65,258.07 79.32,97.19 141.88,205.56 187.68,326.21 45.81,119.54 68.15,253.6 68.15,404.42 0,243.54 -49.16,463.63 -147.47,661.37 -98.31,196.62 -233.49,365.31 -406.65,504.96 -173.16,139.65 -376.49,246.9 -609.98,321.75 -233.49,74.85 -484.85,112.83 -752.97,112.83 -172.05,0 -342.98,-20.11 -512.79,-60.33 -169.81,-40.22 -332.91,-97.19 -489.32,-170.92 -156.4,-73.74 -303.87,-163.11 -443.52,-267.01 -139.64,-103.9 -264.77,-220.08 -374.25,-349.68l0 3.36 -6.7 -13.41c-49.16,-55.86 -73.74,-107.25 -73.74,-154.17 0,-24.58 6.7,-48.04 20.11,-70.38 13.41,-22.35 33.52,-46.92 60.33,-73.74l110.6 -110.6c33.51,-29.04 69.26,-61.44 107.25,-97.19 37.98,-35.75 75.97,-68.15 113.95,-97.19 37.98,-29.05 73.73,-53.63 106.13,-73.74 32.4,-20.11 58.09,-30.16 78.2,-30.16 31.28,0 60.33,10.05 87.14,30.16 26.82,20.11 49.16,39.1 67.03,56.98l13.41 13.4 -3.35 0c78.2,73.74 166.46,144.12 263.65,211.15 97.2,67.03 196.62,126.24 299.4,178.75 102.78,52.51 205.56,93.84 307.23,124 101.66,30.17 196.62,45.81 285.99,45.81 122.89,0 237.96,-15.64 345.21,-46.92 107.25,-31.28 199.98,-75.97 278.18,-132.95 78.2,-56.97 139.64,-125.12 184.33,-206.67 44.69,-80.44 67.03,-169.81 67.03,-268.13 0,-98.31 -29.04,-183.21 -87.14,-253.59 -58.09,-70.39 -134.06,-131.83 -227.9,-184.34 -93.84,-52.51 -198.86,-98.31 -316.16,-136.29 -117.31,-37.99 -235.73,-73.74 -354.15,-107.25 -272.59,-82.67 -510.55,-172.05 -714.99,-268.12 -204.44,-96.08 -375.37,-204.45 -511.66,-323.99 -136.3,-119.53 -237.96,-254.71 -306.11,-403.3 -68.15,-148.58 -102.78,-316.16 -102.78,-501.61 0,-207.79 42.45,-397.71 126.24,-568.64 83.79,-172.04 203.33,-318.39 357.5,-440.17 155.28,-121.77 340.73,-216.73 558.58,-284.88 216.74,-68.14 459.16,-102.78 727.28,-102.78 203.33,0 410.01,31.29 620.04,94.96 210.03,63.68 404.41,151.94 583.16,263.66 53.63,33.51 108.37,71.5 164.23,113.95 55.86,42.45 107.25,84.9 154.17,128.47 46.92,43.57 86.02,86.03 116.18,127.36 30.17,41.34 44.69,77.09 44.69,106.13 0,26.82 -6.7,53.63 -20.11,81.56 -13.4,27.93 -30.16,53.62 -50.27,75.97l-100.55 107.24 0 -3.35c-33.51,35.75 -68.15,72.62 -103.89,110.6 -35.75,37.99 -71.5,71.5 -107.25,101.67 -35.75,30.16 -68.15,55.85 -97.2,75.96 -29.04,20.11 -53.62,30.17 -73.73,30.17z"/>
  <path id="8" class="fil0" d="M53622.35 2666.06c0,-40.22 12.29,-74.85 36.87,-103.9 24.57,-29.04 61.44,-43.57 110.6,-43.57l666.95 0c37.98,0 73.73,13.41 107.25,40.22 33.51,26.81 50.27,62.56 50.27,107.25l0 4685.43c0,98.31 -52.5,147.47 -157.52,147.47l-666.95 0c-98.31,0 -147.47,-49.16 -147.47,-147.47l0 -4685.43z"/>
  <path id="9" class="fil0" d="M58555.8 5008.78c0,225.67 40.22,436.81 121.77,633.44 81.56,196.62 193.27,367.55 335.16,512.78 140.76,145.23 308.34,260.3 501.61,345.21 192.15,84.9 401.06,127.35 626.73,127.35 223.44,0 431.23,-42.45 623.39,-127.35 193.27,-84.91 360.84,-199.98 503.84,-345.21 143,-145.23 254.72,-316.16 336.27,-512.78 81.56,-196.63 121.77,-407.77 121.77,-633.44 0,-223.44 -40.21,-433.47 -121.77,-630.09 -81.55,-196.62 -193.27,-368.67 -336.27,-515.02 -143,-146.35 -310.57,-261.42 -503.84,-346.32 -192.16,-84.91 -399.95,-127.36 -623.39,-127.36 -225.67,0 -434.58,42.45 -626.73,127.36 -193.27,84.9 -360.85,199.97 -501.61,346.32 -141.89,146.35 -253.6,318.4 -335.16,515.02 -81.55,196.62 -121.77,406.65 -121.77,630.09zm-971.94 6.7c0,-234.61 30.16,-461.39 90.49,-680.36 60.33,-218.97 146.35,-423.41 258.07,-613.33 111.71,-189.92 244.66,-363.08 399.95,-519.49 154.17,-156.4 327.33,-290.46 517.25,-401.06 188.8,-110.6 393.24,-196.62 609.98,-258.07 217.84,-61.44 444.63,-91.61 681.47,-91.61 234.61,0 460.28,30.17 678.13,91.61 216.73,61.45 421.17,147.47 609.98,258.07 189.91,110.6 363.08,244.66 519.48,401.06 156.41,156.41 289.35,329.57 399.95,519.49 110.6,189.92 196.62,394.36 258.07,613.33 61.44,218.97 91.61,446.87 91.61,683.71 0,236.84 -30.17,463.63 -91.61,680.36 -61.45,216.73 -147.47,420.06 -258.07,609.98 -110.6,189.92 -243.54,361.96 -399.95,517.25 -156.4,155.29 -329.57,288.23 -519.48,398.83 -188.81,110.6 -393.25,196.62 -609.98,256.95 -217.85,60.33 -444.64,90.49 -681.48,90.49 -236.84,0 -463.63,-30.16 -681.48,-90.49 -216.73,-60.33 -421.17,-146.35 -609.97,-258.07 -189.92,-111.71 -363.09,-245.77 -517.26,-401.06 -155.28,-155.29 -288.23,-327.33 -398.83,-516.14 -110.6,-188.8 -195.5,-392.12 -255.83,-609.97 -60.33,-217.85 -90.49,-444.64 -90.49,-681.48z"/>
  <path id="10" class="fil0" d="M65687.85 2669.41c0,-42.45 13.41,-78.2 39.1,-107.25 25.7,-29.04 61.45,-43.57 108.37,-43.57l770.85 0c31.28,0 60.33,6.71 88.25,21.23 27.93,14.52 53.63,37.98 75.97,69.26 380.96,545.19 759.68,1087.02 1133.94,1625.49 375.37,537.37 754.09,1079.2 1135.05,1624.38l0 -3213c6.7,-40.22 23.46,-71.5 50.27,-93.84 26.81,-22.34 59.21,-33.52 97.19,-33.52l646.85 0c44.68,0 83.78,13.41 116.18,40.22 32.4,26.81 48.04,62.56 48.04,107.25l0 4695.49c0,91.61 -52.51,137.41 -157.52,137.41l-726.16 0c-49.16,0 -94.96,-30.16 -137.42,-90.49 -393.24,-569.76 -784.25,-1139.52 -1174.15,-1709.28 -388.77,-568.64 -778.67,-1139.52 -1169.68,-1711.51l0 3363.81c0,49.16 -11.17,86.03 -34.63,110.6 -23.46,24.58 -63.68,36.87 -119.54,36.87l-643.49 0c-51.39,0 -88.26,-13.41 -111.72,-39.1 -23.46,-25.7 -35.75,-60.33 -35.75,-105.02l0 -4685.43z"/>
 </g>
</svg>
