<?xml version="1.0" encoding="UTF-8"?>
<!DOCTYPE svg PUBLIC "-//W3C//DTD SVG 1.1//EN" "http://www.w3.org/Graphics/SVG/1.1/DTD/svg11.dtd">
<!-- Creator: CorelDRAW 2020 (64 Bit) -->
<svg xmlns="http://www.w3.org/2000/svg" xml:space="preserve" width="500mm" height="500mm" version="1.1" style="shape-rendering:geometricPrecision; text-rendering:geometricPrecision; image-rendering:optimizeQuality; fill-rule:evenodd; clip-rule:evenodd"
viewBox="0 0 50000 50000"
 xmlns:xlink="http://www.w3.org/1999/xlink"
 xmlns:xodm="http://www.corel.com/coreldraw/odm/2003">
 <defs>
  <style type="text/css">
   <![CDATA[
    .fil0 {fill:none}
    .fil1 {fill:url(#id0)}
    .fil2 {fill:url(#id1)}
    .fil3 {fill:url(#id2)}
   ]]>
  </style>
  <linearGradient id="id0" gradientUnits="userSpaceOnUse" x1="46039.4" y1="11257.16" x2="38077.03" y2="26429.84">
   <stop offset="0" style="stop-opacity:1; stop-color:#DFDFDF"/>
   <stop offset="0.631373" style="stop-opacity:1; stop-color:#EFEFEF"/>
   <stop offset="1" style="stop-opacity:1; stop-color:white"/>
  </linearGradient>
  <linearGradient id="id1" gradientUnits="userSpaceOnUse" x1="2208.54" y1="36654.27" x2="11557.72" y2="25051.56">
   <stop offset="0" style="stop-opacity:1; stop-color:lightgrey"/>
   <stop offset="0.670588" style="stop-opacity:1; stop-color:#E9E9E9"/>
   <stop offset="1" style="stop-opacity:1; stop-color:white"/>
  </linearGradient>
  <linearGradient id="id2" gradientUnits="userSpaceOnUse" x1="-5015.7" y1="9283.76" x2="56805.02" y2="43609.71">
   <stop offset="0" style="stop-opacity:1; stop-color:#C8C8C8"/>
   <stop offset="0.701961" style="stop-opacity:1; stop-color:#E1E1E1"/>
   <stop offset="1" style="stop-opacity:1; stop-color:#FAFAFA"/>
  </linearGradient>
 </defs>
 <g id="Camada_x0020_1">
  <metadata id="CorelCorpID_0Corel-Layer"/>
  <rect class="fil0" x="-2.07" y="2.07" width="50000" height="50000"/>
  <g id="_1339597892384">
   <path class="fil1" d="M45184.42 10808.48c9382.98,17249.2 -1898.3,20395.97 -6252.41,16070.03 7966.17,368.65 3861.92,-8279.24 2211.46,-11471.55 -1047.31,-2025.68 -297.57,-2307.38 632.01,-2798.26l3408.94 -1800.22z"/>
   <path class="fil2" d="M5216.23 39077.8c-8422.41,-14779.03 -2318.92,-21864.95 3333.82,-16449.75 -4795.29,1466.69 -1355.09,9055.9 764.73,12652.91 459.53,779.79 184.51,990.88 -296.36,1305.93l-3802.19 2490.91z"/>
   <path class="fil3" d="M45180.19 12112.65c8463.05,16282.22 -2152.8,15807.2 -6248.18,12089.15 -4092.06,-3715.06 -6550.64,-5999.92 -13919.9,-12664.41 -14017.58,-12677.05 -33422.89,5013.55 -21014.76,26813.25 274.99,421.69 757.73,950.86 1218.88,727.16 476.24,-231.06 630.07,-783.8 361.2,-1286.65 -8216.71,-16389.43 -272.73,-18385.26 4343.42,-14088.77 3877.13,3608.59 11956.97,11609.52 15091.25,14617.57 13288.7,12753.49 33393.51,-4534.51 21288.83,-26622.99 -316.07,-508.64 -586.59,-1111.28 -1116.51,-888.48 -529.92,222.81 -70.23,1049.63 -4.23,1304.17z"/>
  </g>
 </g>
</svg>
